<svg width="59" height="59" viewBox="0 0 59 59" fill="none" xmlns="http://www.w3.org/2000/svg">
<rect width="59" height="59" rx="29.5" fill="#F8F4FF"/>
<g clip-path="url(#clip0_306_120)">
<path d="M38.875 17H20.125C18.401 17 17 18.401 17 20.125V38.875C17 40.5979 18.401 42 20.125 42H38.875C40.5979 42 42 40.5979 42 38.875V20.125C42 18.401 40.5979 17 38.875 17Z" fill="#3B5999"/>
<path d="M34.1875 29.5V26.375C34.1875 25.5125 34.8875 25.5937 35.75 25.5937H37.3125V21.6875H34.1875C31.5979 21.6875 29.5 23.7854 29.5 26.375V29.5H26.375V33.4062H29.5V42H34.1875V33.4062H36.5312L38.0938 29.5H34.1875Z" fill="white"/>
</g>
<defs>
<clipPath id="clip0_306_120">
<rect width="25" height="25" fill="white" transform="translate(17 17)"/>
</clipPath>
</defs>
</svg>
