<svg width="59" height="59" viewBox="0 0 59 59" fill="none" xmlns="http://www.w3.org/2000/svg">
<rect width="59" height="59" rx="29.5" fill="#F8F4FF"/>
<g clip-path="url(#clip0_306_104)">
<path d="M37.5284 41.5739C32.1932 42.1431 26.8125 42.1431 21.4773 41.5739C20.4413 41.4645 19.474 41.0032 18.7368 40.2671C17.9996 39.5309 17.537 38.5643 17.4262 37.5284C16.857 32.1932 16.857 26.8125 17.4262 21.4773C17.5356 20.4412 17.9968 19.474 18.733 18.7368C19.4691 17.9996 20.4357 17.537 21.4716 17.4261C26.8069 16.8569 32.1875 16.8569 37.5228 17.4261C38.5588 17.5355 39.5261 17.9968 40.2633 18.7329C41.0004 19.4691 41.463 20.4357 41.5739 21.4716C42.1431 26.8068 42.1431 32.1875 41.5739 37.5227C41.4645 38.5588 41.0033 39.526 40.2671 40.2632C39.5309 41.0004 38.5643 41.463 37.5284 41.5739Z" fill="url(#paint0_linear_306_104)"/>
<path d="M32.6577 21.6875H26.3423C25.1083 21.689 23.9252 22.1799 23.0525 23.0525C22.1799 23.9252 21.689 25.1083 21.6875 26.3423V32.6577C21.689 33.8917 22.1799 35.0748 23.0525 35.9475C23.9252 36.8201 25.1083 37.311 26.3423 37.3125H32.6577C33.8917 37.311 35.0748 36.8201 35.9475 35.9475C36.8201 35.0748 37.311 33.8917 37.3125 32.6577V26.3423C37.311 25.1083 36.8201 23.9252 35.9475 23.0525C35.0748 22.1799 33.8917 21.689 32.6577 21.6875ZM35.7401 32.6577C35.7402 33.0625 35.6606 33.4634 35.5058 33.8375C35.351 34.2115 35.1239 34.5514 34.8377 34.8377C34.5514 35.1239 34.2115 35.351 33.8375 35.5058C33.4634 35.6606 33.0625 35.7402 32.6577 35.7401H26.3423C25.9375 35.7402 25.5366 35.6606 25.1625 35.5058C24.7885 35.351 24.4486 35.1239 24.1623 34.8377C23.8761 34.5514 23.649 34.2115 23.4942 33.8375C23.3394 33.4634 23.2598 33.0625 23.2599 32.6577V26.3423C23.2599 25.5248 23.5847 24.7408 24.1628 24.1628C24.7408 23.5847 25.5248 23.2599 26.3423 23.2599H32.6577C33.4752 23.2599 34.2592 23.5847 34.8372 24.1628C35.4153 24.7408 35.7401 25.5248 35.7401 26.3423V32.6577Z" fill="white"/>
<path d="M29.5001 25.4588C28.7008 25.4588 27.9195 25.6958 27.2549 26.1399C26.5903 26.5839 26.0723 27.2151 25.7665 27.9535C25.4606 28.6919 25.3806 29.5045 25.5365 30.2884C25.6924 31.0723 26.0773 31.7924 26.6425 32.3575C27.2077 32.9227 27.9277 33.3076 28.7117 33.4635C29.4956 33.6195 30.3081 33.5394 31.0466 33.2336C31.785 32.9277 32.4161 32.4097 32.8602 31.7452C33.3042 31.0806 33.5413 30.2993 33.5413 29.5C33.5397 28.4287 33.1135 27.4016 32.356 26.6441C31.5984 25.8866 30.5714 25.4603 29.5001 25.4588ZM29.5001 31.9702C29.0115 31.9702 28.5339 31.8253 28.1277 31.5539C27.7215 31.2824 27.4049 30.8967 27.2179 30.4453C27.031 29.9939 26.982 29.4973 27.0774 29.0181C27.1727 28.5389 27.4079 28.0988 27.7534 27.7533C28.0988 27.4079 28.539 27.1726 29.0182 27.0773C29.4973 26.982 29.994 27.0309 30.4454 27.2179C30.8967 27.4048 31.2825 27.7214 31.5539 28.1276C31.8254 28.5339 31.9702 29.0114 31.9702 29.5C31.9699 30.155 31.7095 30.7831 31.2463 31.2463C30.7832 31.7094 30.1551 31.9698 29.5001 31.9702Z" fill="white"/>
<path d="M33.5639 26.4574C34.1154 26.4574 34.5625 26.0103 34.5625 25.4588C34.5625 24.9073 34.1154 24.4602 33.5639 24.4602C33.0124 24.4602 32.5653 24.9073 32.5653 25.4588C32.5653 26.0103 33.0124 26.4574 33.5639 26.4574Z" fill="white"/>
</g>
<defs>
<linearGradient id="paint0_linear_306_104" x1="18.8608" y1="40.1392" x2="39.7273" y2="19.2727" gradientUnits="userSpaceOnUse">
<stop stop-color="#E09B3D"/>
<stop offset="0.3" stop-color="#C74C4D"/>
<stop offset="0.6" stop-color="#C21975"/>
<stop offset="1" stop-color="#7024C4"/>
</linearGradient>
<clipPath id="clip0_306_104">
<rect width="25" height="25" fill="white" transform="translate(17 17)"/>
</clipPath>
</defs>
</svg>
