<svg width="36" height="35" viewBox="0 0 36 35" fill="none" xmlns="http://www.w3.org/2000/svg">
<g clip-path="url(#clip0_87_130)">
<path d="M17.5886 11.6042C14.2761 11.6042 11.6042 14.2343 11.6042 17.4951C11.6042 20.7558 14.2761 23.3859 17.5886 23.3859C20.9011 23.3859 23.573 20.7558 23.573 17.4951C23.573 14.2343 20.9011 11.6042 17.5886 11.6042ZM17.5886 21.3249C15.448 21.3249 13.698 19.6074 13.698 17.4951C13.698 15.3827 15.4428 13.6652 17.5886 13.6652C19.7344 13.6652 21.4792 15.3827 21.4792 17.4951C21.4792 19.6074 19.7292 21.3249 17.5886 21.3249ZM25.2136 11.3632C25.2136 12.1271 24.5886 12.7372 23.8178 12.7372C23.0417 12.7372 22.4219 12.122 22.4219 11.3632C22.4219 10.6044 23.0469 9.98919 23.8178 9.98919C24.5886 9.98919 25.2136 10.6044 25.2136 11.3632ZM29.1772 12.7577C29.0886 10.9172 28.6615 9.2868 27.2917 7.94354C25.9272 6.60028 24.2709 6.17987 22.4011 6.08759C20.474 5.97992 14.698 5.97992 12.7709 6.08759C10.9063 6.17474 9.25008 6.59515 7.88029 7.93841C6.5105 9.28168 6.08862 10.912 5.99487 12.7526C5.8855 14.6496 5.8855 20.3354 5.99487 22.2324C6.08341 24.0729 6.5105 25.7033 7.88029 27.0466C9.25008 28.3898 10.9011 28.8102 12.7709 28.9025C14.698 29.0102 20.474 29.0102 22.4011 28.9025C24.2709 28.8154 25.9272 28.3949 27.2917 27.0466C28.6563 25.7033 29.0834 24.0729 29.1772 22.2324C29.2865 20.3354 29.2865 14.6547 29.1772 12.7577ZM26.6876 24.2678C26.2813 25.2726 25.4949 26.0468 24.4688 26.4518C22.9324 27.0517 19.2865 26.9133 17.5886 26.9133C15.8907 26.9133 12.2397 27.0466 10.7084 26.4518C9.68758 26.0519 8.90112 25.2778 8.48966 24.2678C7.88029 22.7553 8.02091 19.1664 8.02091 17.4951C8.02091 15.8237 7.8855 12.2297 8.48966 10.7223C8.89591 9.71747 9.68237 8.9433 10.7084 8.53827C12.2449 7.93841 15.8907 8.07684 17.5886 8.07684C19.2865 8.07684 22.9376 7.94354 24.4688 8.53827C25.4897 8.93817 26.2761 9.71234 26.6876 10.7223C27.2969 12.2348 27.1563 15.8237 27.1563 17.4951C27.1563 19.1664 27.2969 22.7604 26.6876 24.2678Z" fill="#23232D"/>
</g>
<defs>
<clipPath id="clip0_87_130">
<rect width="23.3333" height="26.25" fill="white" transform="translate(5.91675 4.375)"/>
</clipPath>
</defs>
</svg>
