<svg width="36" height="35" viewBox="0 0 36 35" fill="none" xmlns="http://www.w3.org/2000/svg">
<g clip-path="url(#clip0_87_134)">
<path d="M11.3394 27.7085V12.9495H6.33689V27.7085H11.3394ZM8.8388 10.9332C10.5833 10.9332 11.6691 9.79985 11.6691 8.38357C11.6366 6.93536 10.5833 5.8335 8.87191 5.8335C7.16074 5.8335 6.04175 6.93538 6.04175 8.38357C6.04175 9.79991 7.12733 10.9332 8.80615 10.9332H8.83865H8.8388ZM14.1083 27.7085H19.1108V19.4663C19.1108 19.0252 19.1433 18.5846 19.2754 18.2693C19.6371 17.3879 20.4602 16.4751 21.8421 16.4751C23.6523 16.4751 24.3765 17.8286 24.3765 19.8126V27.7084H29.3787V19.2457C29.3787 14.7123 26.9107 12.603 23.6194 12.603C20.9207 12.603 19.7358 14.0822 19.0775 15.0897H19.1109V12.9492H14.1084C14.1741 14.3341 14.1084 27.7082 14.1084 27.7082L14.1083 27.7085Z" fill="#23232D"/>
</g>
<defs>
<clipPath id="clip0_87_134">
<rect width="23.3333" height="21.875" fill="white" transform="translate(6.04175 5.8335)"/>
</clipPath>
</defs>
</svg>
