<svg id="svg" version="1.1" xmlns="http://www.w3.org/2000/svg" xmlns:xlink="http://www.w3.org/1999/xlink" width="400" height="128.515625" viewBox="0, 0, 400,128.515625"><g id="svgg"><path id="path0" d="M60.750 5.748 C 60.567 5.779,59.554 5.892,58.500 5.998 C 56.196 6.230,53.208 6.741,51.000 7.278 C 45.709 8.567,39.712 10.993,35.417 13.583 C 31.825 15.749,29.433 17.489,26.344 20.183 C 24.458 21.828,21.774 24.565,20.553 26.088 C 20.262 26.452,19.566 27.313,19.006 28.000 C 17.783 29.504,18.026 29.170,16.458 31.507 C 15.748 32.566,15.167 33.522,15.167 33.632 C 15.167 33.743,15.110 33.834,15.042 33.834 C 14.973 33.834,14.692 34.265,14.417 34.792 C 14.142 35.319,13.878 35.787,13.830 35.833 C 13.695 35.962,11.576 40.344,11.331 41.000 C 11.211 41.321,11.050 41.655,10.973 41.742 C 10.896 41.829,10.833 42.016,10.832 42.158 C 10.832 42.300,10.728 42.615,10.602 42.857 C 10.400 43.244,10.175 43.894,9.254 46.750 C 8.326 49.627,7.161 55.217,7.433 55.489 C 7.533 55.589,10.753 55.230,12.625 54.910 C 18.569 53.894,24.722 51.480,31.833 47.374 C 38.805 43.348,40.249 42.540,42.333 41.495 C 49.912 37.698,56.340 36.263,63.360 36.802 C 71.462 37.424,76.328 39.589,86.580 47.133 C 98.619 55.992,105.677 58.623,118.287 58.950 C 122.840 59.068,122.456 59.293,122.182 56.668 C 121.839 53.393,120.353 46.759,119.679 45.495 C 119.604 45.354,119.486 44.981,119.417 44.667 C 119.348 44.352,119.233 43.979,119.161 43.839 C 119.090 43.698,118.751 42.871,118.407 42.000 C 115.034 33.446,109.551 25.851,101.986 19.253 C 101.103 18.482,97.181 15.563,96.689 15.310 C 96.448 15.186,96.212 15.045,96.167 14.997 C 96.035 14.859,93.994 13.583,93.167 13.121 C 87.913 10.190,81.576 7.826,76.333 6.844 C 75.737 6.733,74.912 6.571,74.500 6.485 C 71.947 5.951,62.511 5.445,60.750 5.748 " stroke="none" fill="#fbcfc2" fill-rule="evenodd"></path><path id="path1" d="M155.523 23.555 C 155.422 23.677,155.083 24.483,154.770 25.347 C 154.252 26.774,154.074 27.236,153.653 28.250 C 153.242 29.240,151.228 34.438,150.812 35.583 C 150.545 36.317,150.257 37.067,150.171 37.250 C 150.085 37.433,149.592 38.708,149.076 40.083 C 148.560 41.458,148.003 42.883,147.839 43.250 C 147.674 43.617,147.416 44.292,147.266 44.750 C 147.115 45.208,146.776 46.108,146.512 46.750 C 146.248 47.392,145.867 48.367,145.664 48.917 C 145.461 49.467,145.202 50.142,145.089 50.417 C 144.975 50.692,144.714 51.367,144.509 51.917 C 143.940 53.443,143.757 53.921,142.912 56.083 C 142.483 57.183,141.943 58.571,141.713 59.167 C 141.483 59.762,141.229 60.400,141.149 60.583 C 141.069 60.767,140.812 61.442,140.579 62.083 C 140.345 62.725,140.108 63.362,140.052 63.500 C 139.996 63.637,139.933 63.825,139.912 63.917 C 139.888 64.025,141.537 64.083,144.602 64.083 L 149.328 64.083 149.639 63.333 C 149.810 62.921,150.120 62.096,150.327 61.500 C 150.535 60.904,150.803 60.192,150.923 59.917 C 151.043 59.642,151.193 59.210,151.256 58.957 C 151.319 58.704,151.437 58.456,151.518 58.405 C 151.600 58.355,151.667 58.168,151.667 57.990 C 151.667 57.811,151.817 57.386,152.000 57.044 C 152.183 56.701,152.333 56.326,152.333 56.209 C 152.333 56.091,152.403 55.865,152.488 55.706 C 152.573 55.547,152.683 55.285,152.733 55.125 C 152.817 54.853,153.336 54.833,160.536 54.834 L 168.250 54.834 168.809 56.418 C 169.116 57.289,169.435 58.043,169.517 58.094 C 169.599 58.145,169.667 58.333,169.667 58.512 C 169.667 58.691,169.809 59.155,169.982 59.543 C 170.156 59.932,170.607 61.112,170.985 62.167 L 171.672 64.083 176.420 64.083 C 179.030 64.083,181.167 64.047,181.167 64.003 C 181.167 63.922,180.711 62.714,180.161 61.333 C 179.996 60.921,179.707 60.171,179.519 59.667 C 179.330 59.163,179.086 58.525,178.977 58.250 C 178.868 57.975,178.765 57.712,178.750 57.667 C 178.719 57.573,178.495 57.010,177.956 55.667 C 177.754 55.163,177.581 54.712,177.571 54.667 C 177.551 54.564,177.447 54.295,176.733 52.477 C 176.421 51.685,176.167 50.984,176.167 50.919 C 176.167 50.854,176.062 50.564,175.934 50.275 C 175.486 49.266,174.500 46.741,174.500 46.605 C 174.500 46.529,174.394 46.231,174.265 45.942 C 174.135 45.653,173.833 44.892,173.592 44.250 C 173.352 43.608,173.045 42.837,172.911 42.536 C 172.776 42.235,172.667 41.879,172.667 41.744 C 172.667 41.610,172.592 41.500,172.500 41.500 C 172.408 41.500,172.333 41.398,172.333 41.272 C 172.333 41.147,172.176 40.641,171.983 40.147 C 171.791 39.654,171.534 38.987,171.413 38.667 C 171.292 38.346,170.775 37.019,170.263 35.719 C 169.752 34.418,169.333 33.267,169.333 33.161 C 169.333 33.055,169.229 32.769,169.101 32.526 C 168.862 32.069,168.667 31.584,167.920 29.583 C 167.409 28.216,167.043 27.287,166.727 26.558 C 166.602 26.269,166.500 25.960,166.500 25.871 C 166.500 25.782,166.264 25.175,165.975 24.522 L 165.450 23.333 160.579 23.333 C 156.728 23.333,155.669 23.380,155.523 23.555 M220.833 43.654 L 220.833 63.997 228.542 64.040 C 238.500 64.096,239.844 63.992,243.273 62.904 C 244.527 62.506,246.996 61.418,247.167 61.188 C 247.213 61.126,247.775 60.743,248.417 60.337 C 249.563 59.610,253.500 55.866,253.500 55.503 C 253.500 55.402,253.632 55.178,253.793 55.005 C 255.201 53.494,256.708 49.169,257.008 45.779 C 257.280 42.709,256.697 37.648,255.988 36.925 C 255.903 36.838,255.833 36.638,255.833 36.482 C 255.833 36.161,255.148 34.670,254.423 33.417 C 253.549 31.904,251.269 29.285,249.975 28.308 C 249.691 28.093,249.317 27.785,249.146 27.625 C 248.974 27.465,248.777 27.333,248.708 27.333 C 248.640 27.333,248.372 27.151,248.114 26.929 C 246.630 25.653,242.344 24.031,239.250 23.575 C 238.792 23.508,234.460 23.420,229.625 23.382 L 220.833 23.311 220.833 43.654 M239.677 32.283 C 241.846 33.088,242.573 33.523,244.215 35.000 C 245.075 35.774,246.667 37.891,246.667 38.262 C 246.667 38.378,246.723 38.497,246.792 38.528 C 247.257 38.735,247.825 41.539,247.844 43.721 C 247.880 47.851,245.384 52.584,242.495 53.862 C 242.223 53.983,242.000 54.138,242.000 54.207 C 242.000 54.277,241.921 54.333,241.825 54.333 C 241.729 54.333,241.335 54.486,240.950 54.672 C 239.316 55.462,237.805 55.667,233.602 55.667 L 229.667 55.667 229.667 43.736 L 229.667 31.805 234.208 31.872 C 238.286 31.932,238.845 31.974,239.677 32.283 M162.164 38.250 C 162.238 38.433,162.465 39.071,162.668 39.667 C 162.871 40.262,163.130 40.975,163.243 41.250 C 163.559 42.012,164.903 45.803,165.120 46.542 C 165.200 46.815,164.904 46.833,160.519 46.833 C 157.942 46.833,155.833 46.812,155.833 46.786 C 155.833 46.740,155.981 46.323,157.027 43.417 C 157.291 42.683,157.535 41.971,157.570 41.833 C 157.628 41.603,158.036 40.508,158.844 38.413 C 159.021 37.953,159.167 37.515,159.167 37.439 C 159.167 37.363,159.270 37.064,159.396 36.775 C 159.523 36.486,159.745 35.912,159.889 35.500 C 160.577 33.542,160.447 33.511,161.281 35.833 C 161.693 36.979,162.090 38.067,162.164 38.250 M201.167 34.884 C 201.121 34.928,200.643 35.014,200.104 35.076 C 198.663 35.241,196.715 36.047,195.689 36.903 C 194.863 37.592,193.779 38.676,193.394 39.198 L 193.000 39.731 193.000 37.613 L 193.000 35.494 188.958 35.539 L 184.917 35.583 184.917 49.798 L 184.917 64.012 188.958 64.048 L 193.000 64.083 193.001 56.333 C 193.003 47.055,193.038 46.731,194.238 45.070 C 196.226 42.318,200.915 41.897,202.803 44.300 C 203.985 45.804,203.912 45.122,203.965 55.083 L 204.013 64.083 208.007 64.036 L 212.000 63.988 212.000 54.223 C 212.000 44.703,211.991 44.423,211.636 43.103 C 210.546 39.057,207.558 35.996,203.917 35.194 C 202.850 34.960,201.275 34.782,201.167 34.884 M275.333 34.931 C 275.104 34.969,274.354 35.087,273.667 35.192 C 272.979 35.296,272.342 35.438,272.250 35.505 C 272.158 35.573,271.821 35.684,271.500 35.751 C 268.457 36.393,264.154 40.423,262.691 44.000 C 262.484 44.504,262.253 45.067,262.177 45.250 C 260.190 50.041,262.444 57.814,266.767 61.080 C 267.124 61.350,267.516 61.668,267.637 61.786 C 267.758 61.904,267.921 62.000,268.000 62.000 C 268.079 62.000,268.251 62.108,268.383 62.240 C 270.032 63.889,276.091 65.175,279.083 64.511 C 279.450 64.429,280.050 64.323,280.417 64.275 C 283.183 63.913,288.833 60.939,288.833 59.846 C 288.833 59.773,288.627 59.448,288.375 59.125 C 288.123 58.802,287.617 58.112,287.250 57.591 C 286.883 57.070,286.265 56.228,285.875 55.719 C 285.485 55.210,285.167 54.735,285.167 54.664 C 285.167 54.330,284.673 54.409,284.236 54.813 C 283.747 55.265,282.473 56.158,281.817 56.509 C 277.653 58.737,271.203 56.922,270.090 53.208 L 269.978 52.833 280.143 52.833 L 290.309 52.833 290.402 51.958 C 290.846 47.794,290.547 45.558,289.195 42.917 C 286.557 37.763,280.218 34.111,275.333 34.931 M310.833 35.156 C 308.434 35.676,306.517 36.883,304.771 38.974 L 304.167 39.698 304.167 37.596 L 304.167 35.494 300.208 35.539 L 296.250 35.583 296.207 49.786 L 296.165 63.988 300.159 64.036 L 304.154 64.083 304.217 56.667 C 304.283 48.829,304.291 48.708,304.837 47.325 C 306.052 44.242,309.338 42.723,313.083 43.513 C 313.410 43.582,313.417 43.496,313.417 39.250 L 313.417 34.917 312.833 34.883 C 312.512 34.864,311.612 34.987,310.833 35.156 M332.333 35.162 C 329.759 35.760,328.105 36.885,326.625 39.047 L 326.167 39.717 326.167 37.608 L 326.167 35.500 322.167 35.500 L 318.167 35.500 318.167 49.792 L 318.167 64.083 322.167 64.083 L 326.167 64.083 326.167 55.739 C 326.167 45.794,326.259 45.250,328.197 43.814 C 329.532 42.824,332.598 42.321,333.374 42.964 C 333.506 43.074,333.652 43.126,333.698 43.080 C 333.880 42.898,335.313 44.369,335.606 45.039 C 335.895 45.700,335.920 46.400,335.966 54.917 L 336.015 64.083 340.049 64.045 L 344.083 64.008 344.167 55.129 L 344.250 46.250 344.702 45.497 C 346.866 41.887,351.954 41.678,353.547 45.133 C 353.901 45.901,353.909 46.099,353.965 54.953 L 354.023 63.989 358.014 64.036 L 362.005 64.083 361.991 54.167 C 361.978 44.946,361.954 44.162,361.655 43.000 C 361.302 41.624,360.365 39.333,360.155 39.333 C 360.082 39.333,359.979 39.202,359.927 39.042 C 359.874 38.881,359.541 38.438,359.186 38.056 C 355.084 33.648,348.466 33.911,343.765 38.668 L 342.614 39.833 342.202 39.208 C 340.082 35.996,335.983 34.316,332.333 35.162 M379.833 34.941 C 375.391 35.608,372.781 36.866,370.048 39.654 L 369.162 40.557 371.579 42.978 L 373.996 45.398 374.456 44.899 C 376.655 42.515,379.856 41.556,382.419 42.515 C 383.332 42.857,384.667 43.998,384.667 44.436 C 384.667 44.548,384.730 44.664,384.808 44.694 C 385.059 44.794,385.195 45.665,384.962 45.679 C 384.845 45.686,384.600 45.726,384.417 45.768 C 384.233 45.810,383.783 45.883,383.417 45.931 C 383.050 45.979,382.300 46.120,381.750 46.245 C 381.200 46.369,380.337 46.523,379.833 46.585 C 379.329 46.648,378.858 46.736,378.786 46.780 C 378.681 46.844,376.897 47.179,375.500 47.396 C 375.077 47.462,373.804 47.850,373.520 48.001 C 368.886 50.449,366.947 54.262,368.087 58.687 C 368.745 61.242,371.234 63.772,373.582 64.273 C 375.824 64.751,377.227 64.790,378.971 64.423 C 380.944 64.008,383.946 62.215,384.706 60.998 C 385.082 60.396,385.167 60.648,385.167 62.375 L 385.167 64.083 389.173 64.083 L 393.179 64.083 393.124 53.917 C 393.075 44.754,393.041 43.676,392.781 43.000 C 392.340 41.854,391.936 40.926,391.838 40.833 C 391.789 40.787,391.637 40.529,391.500 40.258 C 391.177 39.622,388.898 37.304,388.250 36.952 C 385.261 35.331,382.165 34.591,379.833 34.941 M278.083 42.500 C 279.839 43.104,281.596 44.845,282.077 46.458 L 282.189 46.833 276.095 46.833 C 271.965 46.833,270.000 46.777,270.000 46.659 C 270.000 46.563,270.175 46.156,270.389 45.755 C 271.941 42.839,275.138 41.487,278.083 42.500 M385.103 52.292 C 384.700 55.807,382.723 57.800,379.474 57.966 C 377.107 58.086,376.095 57.387,375.948 55.528 C 375.854 54.330,376.851 53.003,378.027 52.763 C 378.150 52.737,378.363 52.674,378.500 52.621 C 378.637 52.568,379.350 52.439,380.083 52.335 C 380.817 52.230,382.204 51.970,383.167 51.756 C 384.129 51.542,384.983 51.360,385.065 51.350 C 385.147 51.341,385.164 51.759,385.103 52.292 M122.562 63.167 C 122.562 64.129,122.589 64.523,122.623 64.042 C 122.657 63.560,122.657 62.773,122.623 62.292 C 122.589 61.810,122.562 62.204,122.562 63.167 M179.135 74.958 C 180.447 74.986,182.547 74.986,183.802 74.958 C 185.057 74.930,183.983 74.907,181.417 74.907 C 178.850 74.907,177.823 74.930,179.135 74.958 M55.311 82.161 C 50.701 82.750,46.762 84.366,38.833 88.920 C 28.604 94.795,19.356 99.425,18.819 98.939 C 18.621 98.760,19.803 100.246,20.333 100.844 C 20.471 100.999,20.958 101.560,21.417 102.092 C 22.602 103.466,24.534 105.403,26.067 106.755 C 26.792 107.394,27.506 108.029,27.656 108.167 C 27.805 108.304,28.225 108.639,28.589 108.912 C 29.320 109.459,29.403 109.524,29.993 110.011 C 30.218 110.196,30.668 110.510,30.993 110.707 C 31.317 110.904,31.621 111.113,31.667 111.171 C 31.795 111.333,34.592 113.167,34.711 113.167 C 34.769 113.167,35.139 113.383,35.533 113.647 C 36.419 114.240,39.371 115.755,39.542 115.704 C 39.610 115.683,39.667 115.742,39.667 115.833 C 39.667 115.925,39.754 116.000,39.862 116.000 C 39.969 116.000,40.513 116.218,41.070 116.484 C 45.605 118.652,51.473 120.258,58.250 121.187 C 61.707 121.660,70.955 121.414,74.000 120.768 C 74.229 120.720,74.829 120.609,75.333 120.522 C 76.089 120.393,77.854 120.019,79.000 119.745 C 81.169 119.228,85.224 117.843,87.616 116.804 C 88.000 116.637,88.394 116.500,88.491 116.500 C 88.588 116.500,88.667 116.425,88.667 116.333 C 88.667 116.242,88.760 116.167,88.875 116.167 C 89.341 116.166,93.032 114.164,96.390 112.091 C 99.850 109.954,105.264 105.249,108.197 101.827 C 108.627 101.326,109.142 100.729,109.341 100.500 C 109.541 100.271,109.902 99.821,110.143 99.500 C 110.384 99.179,110.622 98.879,110.672 98.833 C 111.098 98.441,113.899 94.218,114.928 92.417 C 116.528 89.615,116.536 89.645,114.390 90.336 C 106.627 92.833,99.682 93.671,94.583 92.727 C 91.373 92.132,89.854 91.526,83.000 88.104 C 75.659 84.439,72.047 83.248,65.750 82.414 C 63.450 82.109,56.946 81.951,55.311 82.161 M237.233 94.667 C 237.233 95.996,237.259 96.540,237.290 95.875 C 237.322 95.210,237.322 94.123,237.290 93.458 C 237.259 92.794,237.233 93.337,237.233 94.667 " stroke="none" fill="#ec6c44" fill-rule="evenodd"></path><path id="path2" d="M297.944 73.778 C 297.883 73.839,297.833 79.126,297.833 85.528 L 297.833 97.167 300.083 97.167 L 302.333 97.167 302.333 85.417 L 302.333 73.667 300.194 73.667 C 299.018 73.667,298.006 73.717,297.944 73.778 M181.375 74.961 L 176.667 75.005 176.667 86.086 L 176.667 97.167 182.042 97.163 C 188.782 97.157,190.065 96.815,192.302 94.424 C 194.296 92.292,194.800 90.659,194.826 86.237 C 194.855 81.507,194.352 79.893,192.154 77.654 C 189.786 75.243,188.393 74.895,181.375 74.961 M267.710 83.042 C 267.778 90.654,267.784 90.714,268.608 92.500 C 270.103 95.741,274.747 97.967,278.125 97.062 C 278.462 96.971,278.769 92.167,278.437 92.167 C 278.402 92.167,278.105 92.279,277.776 92.417 C 275.023 93.567,272.403 91.588,272.210 88.213 L 272.122 86.677 274.269 86.630 L 276.417 86.583 276.417 84.417 L 276.417 82.250 274.292 82.203 L 272.167 82.157 272.167 78.995 L 272.167 75.833 269.906 75.833 L 267.644 75.833 267.710 83.042 M187.870 80.067 C 188.692 80.543,189.420 81.354,189.890 82.317 C 190.319 83.197,190.294 88.841,189.857 89.862 C 188.934 92.016,187.828 92.551,184.125 92.636 L 181.333 92.700 181.333 86.081 L 181.333 79.462 184.208 79.537 C 186.971 79.609,187.114 79.630,187.870 80.067 M202.785 80.172 C 198.914 80.777,195.833 84.545,195.833 88.675 C 195.833 95.932,204.560 99.909,210.000 95.131 C 210.973 94.277,210.998 94.340,209.100 92.855 L 207.361 91.493 206.561 92.032 C 205.075 93.036,202.998 92.856,201.641 91.607 C 198.909 89.092,200.729 84.580,204.462 84.615 C 205.881 84.628,205.882 84.592,204.395 86.495 C 202.776 88.567,202.824 88.326,203.869 89.121 C 204.354 89.490,205.138 90.102,205.611 90.482 L 206.473 91.173 207.861 89.403 C 208.625 88.430,209.400 87.428,209.583 87.177 C 210.087 86.486,210.861 85.506,211.387 84.894 L 211.857 84.345 211.361 83.631 C 209.561 81.040,206.119 79.652,202.785 80.172 M219.500 80.232 C 216.345 80.816,213.555 83.581,212.840 86.833 C 212.749 87.246,212.673 89.740,212.671 92.375 L 212.667 97.167 214.917 97.167 L 217.167 97.167 217.170 92.458 C 217.174 88.234,217.206 87.682,217.482 87.083 C 218.046 85.865,219.135 84.945,220.256 84.742 C 221.512 84.515,221.500 84.537,221.500 82.424 C 221.500 79.744,221.592 79.845,219.500 80.232 M228.203 80.186 C 226.334 80.497,224.481 81.741,223.423 83.395 C 222.234 85.254,222.167 85.703,222.167 91.772 L 222.167 97.167 224.417 97.167 L 226.667 97.167 226.680 92.458 C 226.699 85.916,226.988 85.004,229.129 84.717 C 232.159 84.311,232.768 85.679,232.722 92.792 L 232.693 97.167 234.972 97.166 L 237.250 97.166 237.253 92.458 C 237.257 85.581,237.813 84.329,240.687 84.715 C 242.928 85.016,243.225 85.856,243.306 92.125 L 243.372 97.167 245.618 97.167 L 247.863 97.167 247.793 91.542 C 247.732 86.613,247.686 85.814,247.418 85.083 C 245.646 80.255,239.852 78.540,235.650 81.600 L 234.884 82.158 234.517 81.769 C 233.342 80.518,230.495 79.804,228.203 80.186 M256.088 80.178 C 252.729 80.739,249.967 83.451,249.249 86.892 C 248.004 92.859,253.274 98.215,259.282 97.088 L 259.833 96.985 259.833 94.576 C 259.833 92.240,259.776 91.958,259.379 92.355 C 259.103 92.631,256.982 92.742,256.298 92.516 C 255.385 92.215,254.332 91.206,253.893 90.212 C 252.038 86.018,257.797 82.521,260.759 86.042 C 261.541 86.970,261.572 87.189,261.663 92.250 L 261.750 97.083 263.958 97.130 L 266.167 97.176 266.165 92.547 C 266.164 87.225,266.053 86.293,265.232 84.677 C 263.562 81.388,259.830 79.552,256.088 80.178 M285.917 80.224 C 280.326 81.416,277.484 87.937,280.363 92.968 C 283.714 98.826,292.600 98.494,295.507 92.402 C 298.579 85.965,292.887 78.738,285.917 80.224 M310.849 80.179 C 304.245 81.347,301.677 89.878,306.483 94.684 C 311.899 100.100,321.036 96.329,321.063 88.667 C 321.083 83.162,316.327 79.210,310.849 80.179 M329.000 80.144 C 328.111 80.287,326.691 80.799,326.320 81.112 C 326.175 81.234,325.978 81.333,325.882 81.333 C 325.417 81.333,323.388 83.648,322.750 84.906 L 322.083 86.220 322.083 88.652 L 322.083 91.083 322.716 92.340 C 324.279 95.443,327.091 97.167,330.587 97.167 C 332.925 97.167,332.833 97.276,332.833 94.494 C 332.833 92.139,332.743 91.824,332.215 92.351 C 332.114 92.453,331.555 92.574,330.974 92.620 C 326.949 92.940,324.814 88.391,327.729 85.704 C 329.757 83.834,332.886 84.413,334.220 86.905 C 334.788 87.965,334.783 97.710,334.215 98.772 C 333.174 100.719,330.993 101.656,329.224 100.917 C 328.895 100.779,328.560 100.667,328.480 100.667 C 328.399 100.667,328.333 101.745,328.333 103.063 L 328.333 105.458 328.854 105.563 C 333.000 106.392,337.576 103.618,338.768 99.552 C 339.189 98.118,339.307 89.132,338.931 87.136 C 338.051 82.458,333.695 79.392,329.000 80.144 M340.696 85.458 L 340.750 90.917 341.406 92.229 C 342.839 95.093,345.754 97.167,348.349 97.167 L 349.045 97.167 348.942 97.922 C 348.635 100.163,345.480 101.954,343.667 100.917 C 342.704 100.366,342.667 100.443,342.667 102.990 C 342.667 105.704,342.552 105.543,344.553 105.638 C 348.067 105.806,351.275 103.926,352.659 100.885 C 352.860 100.444,353.112 99.933,353.220 99.750 C 353.363 99.507,353.430 96.781,353.466 89.703 L 353.515 79.990 351.299 80.037 L 349.083 80.083 349.040 86.375 L 348.996 92.667 348.537 92.667 C 347.501 92.667,346.057 91.527,345.479 90.254 C 345.208 89.658,345.174 89.081,345.170 85.055 C 345.166 79.420,345.437 80.000,342.803 80.000 L 340.642 80.000 340.696 85.458 M289.642 85.054 C 292.069 86.243,292.582 89.688,290.608 91.543 C 289.031 93.024,286.710 93.073,285.099 91.658 C 281.516 88.512,285.344 82.948,289.642 85.054 M314.417 85.106 C 318.190 86.983,316.774 92.583,312.527 92.583 C 308.483 92.583,306.927 87.598,310.254 85.303 C 311.526 84.426,312.917 84.360,314.417 85.106 " stroke="none" fill="#8c3c34" fill-rule="evenodd"></path><path id="path3" d="M57.226 36.849 C 52.617 37.260,47.764 38.774,42.333 41.495 C 40.249 42.540,38.805 43.348,31.833 47.374 C 23.408 52.239,16.839 54.562,9.217 55.372 L 7.351 55.570 7.247 56.186 C 6.978 57.777,6.872 59.741,6.849 63.537 L 6.824 67.658 8.203 67.061 C 21.482 61.311,30.539 59.985,41.500 62.184 C 48.063 63.501,52.452 65.514,61.083 71.165 C 67.513 75.374,69.951 76.519,74.000 77.230 C 84.048 78.994,97.716 74.002,120.292 60.322 C 121.415 59.641,122.333 59.047,122.333 59.001 C 122.332 58.954,120.663 58.910,118.624 58.903 C 106.303 58.857,98.734 56.077,86.580 47.133 C 74.511 38.251,67.810 35.904,57.226 36.849 " stroke="none" fill="#f49474" fill-rule="evenodd"></path><path id="path4" d="M119.917 60.528 C 101.030 72.194,85.745 78.249,76.854 77.586 C 71.356 77.176,68.470 76.001,61.083 71.165 C 52.452 65.514,48.063 63.501,41.500 62.184 C 32.501 60.379,24.861 60.987,15.304 64.270 C 13.230 64.983,7.564 67.247,6.985 67.594 C 6.931 67.627,6.943 68.088,7.012 68.618 C 7.081 69.149,7.187 70.094,7.247 70.718 C 7.307 71.341,7.392 72.016,7.436 72.218 C 7.480 72.419,7.543 72.808,7.577 73.083 C 7.673 73.874,7.967 75.314,8.343 76.833 C 8.444 77.246,8.553 77.696,8.584 77.833 C 8.747 78.560,9.176 80.052,9.517 81.083 C 9.730 81.725,9.913 82.287,9.925 82.333 C 9.936 82.379,9.992 82.529,10.049 82.667 C 10.106 82.804,10.308 83.390,10.498 83.969 C 10.689 84.548,10.917 85.148,11.005 85.303 C 11.174 85.597,11.450 86.326,11.475 86.545 C 11.483 86.615,11.764 87.215,12.100 87.878 C 12.436 88.541,12.838 89.346,12.993 89.667 C 14.186 92.126,16.174 95.352,18.043 97.863 L 18.995 99.142 21.872 97.844 C 27.123 95.474,30.682 93.602,38.833 88.920 C 48.922 83.126,52.035 82.091,59.333 82.102 C 68.507 82.117,73.589 83.406,83.000 88.104 C 88.550 90.875,90.046 91.540,92.083 92.138 C 97.716 93.794,104.647 93.306,113.333 90.644 C 114.571 90.264,115.733 89.946,115.917 89.935 C 116.114 89.924,116.345 89.712,116.482 89.417 C 116.610 89.142,117.079 88.153,117.524 87.220 C 117.969 86.287,118.333 85.410,118.333 85.272 C 118.333 85.133,118.400 84.978,118.482 84.928 C 118.563 84.878,118.681 84.630,118.744 84.377 C 118.807 84.124,118.959 83.692,119.081 83.417 C 119.202 83.142,119.359 82.692,119.429 82.417 C 119.573 81.850,119.568 81.867,119.738 81.417 C 120.086 80.500,120.177 80.218,120.247 79.852 C 120.289 79.633,120.446 79.033,120.595 78.519 C 120.745 78.004,120.901 77.433,120.942 77.250 C 120.983 77.067,121.050 76.767,121.090 76.583 C 121.131 76.400,121.202 76.081,121.249 75.875 C 121.619 74.234,121.832 73.102,121.897 72.417 C 121.932 72.050,122.046 71.037,122.150 70.167 C 122.471 67.486,122.642 61.195,122.424 60.083 C 122.388 59.900,122.353 59.619,122.346 59.458 C 122.328 59.042,122.307 59.051,119.917 60.528 M139.978 64.044 C 140.048 64.115,142.163 64.152,144.678 64.128 L 149.250 64.083 144.550 64.000 C 141.965 63.954,139.907 63.974,139.978 64.044 M174.135 64.125 C 175.447 64.153,177.547 64.153,178.802 64.125 C 180.057 64.096,178.983 64.073,176.417 64.073 C 173.850 64.073,172.823 64.096,174.135 64.125 M187.042 64.124 C 188.119 64.153,189.881 64.153,190.958 64.124 C 192.035 64.095,191.154 64.072,189.000 64.072 C 186.846 64.072,185.965 64.095,187.042 64.124 M206.135 64.125 C 207.263 64.153,209.063 64.153,210.135 64.124 C 211.206 64.095,210.283 64.072,208.083 64.072 C 205.883 64.072,205.006 64.096,206.135 64.125 M224.625 64.125 C 226.756 64.151,230.244 64.151,232.375 64.125 C 234.506 64.098,232.762 64.077,228.500 64.077 C 224.237 64.077,222.494 64.098,224.625 64.125 M298.208 64.124 C 299.285 64.153,301.048 64.153,302.125 64.124 C 303.202 64.095,302.321 64.072,300.167 64.072 C 298.012 64.072,297.131 64.095,298.208 64.124 M320.208 64.124 C 321.285 64.153,323.048 64.153,324.125 64.124 C 325.202 64.095,324.321 64.072,322.167 64.072 C 320.012 64.072,319.131 64.095,320.208 64.124 M338.218 64.125 C 339.300 64.154,341.025 64.154,342.051 64.124 C 343.077 64.095,342.192 64.071,340.083 64.071 C 337.975 64.072,337.135 64.095,338.218 64.125 M355.968 64.125 C 357.096 64.153,358.896 64.153,359.968 64.124 C 361.040 64.095,360.117 64.072,357.917 64.072 C 355.717 64.072,354.840 64.096,355.968 64.125 M387.208 64.124 C 388.285 64.153,390.048 64.153,391.125 64.124 C 392.202 64.095,391.321 64.072,389.167 64.072 C 387.012 64.072,386.131 64.095,387.208 64.124 " stroke="none" fill="#ec744c" fill-rule="evenodd"></path></g></svg>