<svg width="595" height="544" viewBox="0 0 595 544" fill="none" xmlns="http://www.w3.org/2000/svg">
<g clip-path="url(#clip0_466_556)">
<path d="M38.6051 506.244C16.3356 477.876 5.93094 437.895 3.45199 398.504C-1.22471 324.244 21.0643 248.017 63.0767 194.577C86.0687 165.329 114.423 142.832 135.899 111.876C157.26 81.0857 172.363 41.4722 201.243 22.1835C238.228 -2.51734 284.528 15.1923 320.687 41.6907C356.848 68.1869 389.957 103.559 430.68 116.49C459.359 125.597 491.994 123.812 515.094 146.691C551.388 182.636 541.444 252.527 553.998 307.847C565.807 359.882 600.091 406.549 593.926 460.048C589.173 501.281 560.176 533.201 528.324 546.889C496.472 560.58 461.875 559.491 428.162 558.243C351.966 555.427 274.973 549.974 199.218 553.456C149.985 555.719 72.8368 562.609 38.603 506.239L38.6051 506.244Z" fill="#F1F1F1"/>
<path d="M173.159 486.124C162.851 458.451 128.946 441.021 91.7211 446.089C61.4956 450.205 37.3463 468.03 27.9756 490.336C31.1684 495.951 34.7029 501.277 38.6031 506.244C51.8436 528.044 71.5001 540.38 93.4797 547.185C120.908 541.522 146.185 528.991 162.142 502.72C166.2 497.55 169.864 491.993 173.159 486.124ZM532.817 503.185H532.813C536.494 476.15 512.321 450.536 478.823 445.977C445.325 441.414 415.186 459.635 411.504 486.667C411.495 486.732 411.489 486.797 411.48 486.862L408.389 509.568C420.113 527.027 432.876 543.486 446.564 558.823C473.781 559.392 501.142 558.15 526.775 547.547L532.815 503.187L532.817 503.185Z" fill="#74BCDE"/>
<path d="M241.62 316.965H335.163V463.777H241.62V316.965Z" fill="#F4B683"/>
<path d="M335.16 274.987H255.072C251.57 277.319 248.116 279.893 244.702 282.733C243.658 283.603 242.632 284.49 241.62 285.383V376.034C242.139 376.142 242.658 376.246 243.177 376.341C257.824 379.032 273.102 377.327 287.792 374.805C304.126 372 320.776 367.866 335.16 361.041V274.987Z" fill="#D56734"/>
<path d="M282.765 290.107C350.928 290.107 406.185 233.794 406.185 164.328C406.185 94.8612 350.928 38.5477 282.765 38.5477C214.602 38.5477 159.345 94.8612 159.345 164.328C159.345 233.794 214.602 290.107 282.765 290.107Z" fill="#7A6F69"/>
<path d="M380.709 150.92C378.908 97.4412 334.994 54.6392 281.075 54.6392C227.157 54.6392 183.243 97.4412 181.441 150.92H181.376V272.798H181.723C185.936 323.98 228.805 364.206 281.075 364.206C333.345 364.206 376.212 323.98 380.428 272.798H380.774V150.92H380.709Z" fill="#F4B683"/>
<path d="M404.82 216.851C392.142 194.376 372.548 222.998 372.548 222.998L366.208 275.714C399.633 268.303 417.498 239.328 404.82 216.853V216.851Z" fill="#F4B683"/>
<path d="M374.276 235.004C374.276 235.004 384.073 217.138 393.295 222.613C402.516 228.088 400.498 256.326 372.26 262.091L374.276 235.004Z" fill="#E38859"/>
<path d="M153.632 216.851C166.31 194.376 185.904 222.998 185.904 222.998L192.244 275.714C158.819 268.303 140.954 239.328 153.632 216.853V216.851Z" fill="#F4B683"/>
<path d="M184.176 235.004C184.176 235.004 174.379 217.138 165.157 222.613C155.936 228.088 157.954 256.326 186.192 262.091L184.176 235.004Z" fill="#E38859"/>
<path d="M312.028 220.788C312.028 226.2 315.742 230.589 320.323 230.589C324.905 230.589 328.619 226.2 328.619 220.788C328.619 215.375 324.905 210.986 320.323 210.986C315.742 210.986 312.028 215.375 312.028 220.788ZM241.685 220.729C241.685 226.118 237.971 230.487 233.389 230.487C228.808 230.487 225.094 226.118 225.094 220.729C225.094 215.341 228.808 210.971 233.389 210.971C237.971 210.971 241.685 215.341 241.685 220.729Z" fill="#3A3944"/>
<path d="M251.183 178.786C250.242 188.215 242.691 196.766 233.08 199.797C228.267 201.138 223.209 201.503 218.5 200.452C216.127 200.097 213.919 199.085 211.723 198.326C209.623 197.227 207.585 196.067 205.72 194.661C208.135 194.497 210.352 194.679 212.549 194.741C214.76 194.618 216.891 194.798 218.974 194.624C223.151 194.432 227.086 193.785 230.822 192.658C234.592 191.587 238.033 189.677 241.425 187.402C244.791 185.05 247.949 182.18 251.181 178.786H251.183ZM345.675 193.757C339.225 200.696 328.037 202.942 318.552 199.543C313.908 197.703 309.659 194.934 306.544 191.25C304.87 189.532 303.721 187.391 302.432 185.459C301.422 183.313 300.503 181.159 299.867 178.911C301.889 180.24 303.546 181.726 305.257 183.106C307.092 184.345 308.681 185.777 310.444 186.898C313.888 189.271 317.414 191.135 321.07 192.496C324.719 193.924 328.617 194.484 332.692 194.722C336.796 194.884 341.044 194.508 345.673 193.759L345.675 193.757ZM361.168 101.659C344.732 129.549 315.696 150.507 282.951 158.117L309.175 129.272C279.99 141.223 249.844 151.065 219.084 158.688C227.551 152.452 233.828 143.594 236.716 133.81C212.312 141.749 189.899 155.134 171.815 172.569C173.62 161.269 175.421 149.967 177.225 138.666C165.032 145.244 153.42 152.794 142.557 161.208C150.485 134.251 164.29 109.215 186.78 91.073C179.655 91.5359 172.531 91.9966 165.406 92.4595C192.4 54.1352 242.351 31.4742 290.79 35.5799C309.858 37.1957 328.957 42.8848 343.798 54.3386C358.639 65.7945 370.502 85.823 361.17 101.659H361.168Z" fill="#4B3132"/>
<path d="M280.256 218.274C280.781 223.84 280.784 229.341 280.639 234.822C280.474 240.301 280.115 245.759 279.62 251.191L279.226 255.259L278.798 259.311L278.683 260.321L278.638 261.21C278.618 261.799 278.53 262.398 278.601 262.982C278.655 263.566 278.616 264.174 278.759 264.751L278.902 265.636C278.928 265.783 278.943 265.934 278.975 266.082L279.101 266.514C280.29 271.208 283.544 275.593 287.714 279.246C286.362 278.863 285.071 278.266 283.834 277.568C283.195 277.241 282.62 276.821 282.01 276.432C281.441 275.997 280.844 275.58 280.306 275.091C278.11 273.187 276.226 270.763 275.027 267.922C274.433 266.508 273.998 265 273.79 263.455C273.624 262.685 273.626 261.911 273.6 261.132L273.574 259.969L273.608 258.932C273.654 257.548 273.751 256.174 273.829 254.799L274.16 250.689C274.666 245.22 275.399 239.784 276.364 234.374C277.353 228.969 278.523 223.585 280.254 218.27L280.256 218.274ZM319.318 316.759C316.711 314.999 314.033 313.502 311.299 312.189C308.573 310.865 305.776 309.775 302.947 308.899C297.288 307.151 291.456 306.338 285.638 306.597C284.909 306.586 284.184 306.694 283.457 306.736L282.367 306.82L281.281 306.971C280.559 307.075 279.827 307.131 279.107 307.27C278.387 307.408 277.669 307.555 276.944 307.679C274.074 308.304 271.201 309.054 268.387 310.078C262.721 312.031 257.212 314.696 251.605 317.551C255.827 312.877 260.963 309.011 266.697 306.11C269.544 304.613 272.609 303.517 275.735 302.621C278.878 301.758 282.138 301.291 285.413 301.122C291.978 300.83 298.606 302.182 304.494 304.895C307.436 306.262 310.215 307.93 312.722 309.922C313.981 310.908 315.171 311.977 316.281 313.115C317.388 314.252 318.442 315.444 319.315 316.764L319.318 316.759Z" fill="#D56734"/>
<path d="M224.923 251.783C225.414 252.622 226.491 252.906 227.33 252.415C228.17 251.924 228.453 250.847 227.962 250.007C227.471 249.168 226.394 248.885 225.554 249.376C224.715 249.867 224.432 250.944 224.923 251.783ZM210.962 252.538C211.453 253.377 212.53 253.661 213.369 253.17C214.209 252.679 214.492 251.601 214.001 250.762C213.51 249.923 212.433 249.64 211.593 250.131C210.754 250.622 210.471 251.699 210.962 252.538ZM216.404 261.69C216.895 262.53 217.973 262.813 218.812 262.322C219.651 261.831 219.935 260.754 219.443 259.914C218.952 259.075 217.875 258.792 217.036 259.283C216.197 259.774 215.913 260.851 216.404 261.69ZM203.852 261.113C204.912 262.928 207.241 263.54 209.054 262.48C210.869 261.42 211.481 259.09 210.421 257.278C209.361 255.463 207.031 254.851 205.219 255.91C203.404 256.97 202.792 259.3 203.852 261.113ZM195.822 262.759C196.313 263.598 197.39 263.882 198.23 263.391C199.069 262.9 199.352 261.822 198.861 260.983C198.37 260.144 197.293 259.86 196.454 260.351C195.614 260.842 195.331 261.92 195.822 262.759ZM201.264 271.911C201.756 272.75 202.833 273.034 203.672 272.543C204.511 272.052 204.795 270.975 204.304 270.135C203.813 269.296 202.735 269.013 201.896 269.504C201.057 269.995 200.773 271.072 201.264 271.911ZM237.687 259.62C238.178 260.46 239.256 260.743 240.095 260.252C240.934 259.761 241.218 258.684 240.727 257.844C240.236 257.005 239.158 256.722 238.319 257.213C237.48 257.704 237.196 258.781 237.687 259.62ZM223.724 260.375C224.215 261.214 225.293 261.498 226.132 261.007C226.971 260.516 227.255 259.439 226.764 258.599C226.273 257.76 225.195 257.477 224.356 257.968C223.517 258.459 223.233 259.536 223.724 260.375ZM235.314 327.393C235.805 328.233 236.883 328.516 237.722 328.025C238.561 327.534 238.845 326.457 238.354 325.618C237.863 324.778 236.785 324.495 235.946 324.986C235.107 325.477 234.823 326.554 235.314 327.393ZM242.634 326.076C243.125 326.915 244.203 327.199 245.042 326.708C245.881 326.217 246.165 325.139 245.674 324.3C245.183 323.461 244.105 323.178 243.266 323.669C242.427 324.16 242.143 325.237 242.634 326.076ZM229.498 273.529C230.605 275.426 233.041 276.064 234.936 274.957C236.833 273.849 237.471 271.416 236.364 269.519C235.256 267.622 232.82 266.984 230.925 268.091C229.028 269.199 228.39 271.634 229.498 273.529ZM229.818 321.603C230.925 323.5 233.361 324.138 235.256 323.03C237.153 321.923 237.791 319.487 236.684 317.592C235.576 315.695 233.14 315.057 231.246 316.165C229.349 317.272 228.71 319.708 229.818 321.603ZM215.85 271.831C216.809 271.989 217.715 271.34 217.873 270.38C217.911 270.152 217.903 269.918 217.85 269.693C217.798 269.468 217.701 269.256 217.566 269.068C217.432 268.88 217.261 268.72 217.065 268.599C216.868 268.477 216.65 268.395 216.422 268.357C216.193 268.319 215.96 268.327 215.735 268.38C215.51 268.432 215.297 268.529 215.109 268.664C214.921 268.798 214.762 268.969 214.64 269.165C214.518 269.362 214.436 269.58 214.399 269.809C214.361 270.037 214.369 270.27 214.422 270.495C214.475 270.72 214.571 270.933 214.706 271.121C214.841 271.308 215.011 271.468 215.207 271.59C215.404 271.712 215.622 271.794 215.85 271.831ZM206.893 286.876C209.958 287.382 212.855 285.305 213.361 282.24C213.867 279.175 211.79 276.279 208.725 275.772C205.66 275.266 202.764 277.343 202.257 280.408C201.751 283.473 203.828 286.37 206.893 286.876ZM218.042 284.71C219 284.868 219.906 284.219 220.064 283.259C220.222 282.299 219.573 281.394 218.613 281.236C218.385 281.199 218.151 281.207 217.926 281.259C217.701 281.312 217.489 281.408 217.301 281.543C217.113 281.678 216.954 281.848 216.832 282.045C216.71 282.241 216.628 282.46 216.59 282.688C216.553 282.916 216.561 283.149 216.613 283.374C216.666 283.6 216.762 283.812 216.897 284C217.032 284.188 217.202 284.347 217.399 284.469C217.595 284.591 217.814 284.673 218.042 284.71ZM223.491 315.799C224.449 315.957 225.355 315.308 225.513 314.348C225.671 313.387 225.022 312.483 224.062 312.325C223.101 312.167 222.197 312.816 222.039 313.777C222.002 314.005 222.009 314.238 222.062 314.463C222.115 314.688 222.211 314.901 222.346 315.089C222.481 315.276 222.651 315.436 222.848 315.558C223.044 315.68 223.263 315.762 223.491 315.799ZM334.711 327.393C334.22 328.233 333.142 328.516 332.303 328.025C331.464 327.534 331.18 326.457 331.671 325.618C332.162 324.778 333.24 324.495 334.079 324.986C334.918 325.477 335.202 326.554 334.711 327.393ZM327.39 326.076C326.899 326.915 325.822 327.199 324.983 326.708C324.144 326.217 323.86 325.139 324.351 324.3C324.842 323.461 325.92 323.178 326.759 323.669C327.598 324.16 327.882 325.237 327.39 326.076ZM340.205 321.603C339.097 323.5 336.662 324.138 334.767 323.03C332.87 321.923 332.232 319.487 333.339 317.592C334.447 315.695 336.882 315.057 338.777 316.165C340.674 317.272 341.312 319.708 340.205 321.603ZM325.268 248.478C324.777 249.317 323.7 249.601 322.861 249.11C322.022 248.619 321.738 247.541 322.229 246.702C322.72 245.863 323.798 245.579 324.637 246.07C325.476 246.561 325.759 247.639 325.268 248.478ZM339.229 249.233C338.738 250.072 337.661 250.356 336.822 249.864C335.982 249.373 335.699 248.296 336.19 247.457C336.681 246.618 337.758 246.334 338.598 246.825C339.437 247.316 339.72 248.394 339.229 249.233ZM333.787 258.385C333.296 259.224 332.219 259.508 331.379 259.017C330.54 258.526 330.257 257.448 330.748 256.609C331.239 255.77 332.316 255.486 333.155 255.978C333.995 256.469 334.278 257.546 333.787 258.385ZM354.371 259.454C353.88 260.293 352.803 260.576 351.964 260.085C351.124 259.594 350.841 258.517 351.332 257.678C351.823 256.838 352.9 256.555 353.74 257.046C354.579 257.537 354.862 258.614 354.371 259.454ZM348.929 268.606C348.438 269.445 347.361 269.729 346.521 269.238C345.682 268.746 345.399 267.669 345.89 266.83C346.381 265.991 347.458 265.707 348.297 266.198C349.136 266.689 349.42 267.767 348.929 268.606ZM312.506 256.315C312.015 257.154 310.938 257.438 310.098 256.947C309.259 256.456 308.976 255.378 309.467 254.539C309.958 253.7 311.035 253.416 311.874 253.907C312.714 254.398 312.997 255.476 312.506 256.315ZM326.467 257.07C325.976 257.909 324.899 258.193 324.059 257.702C323.22 257.21 322.937 256.133 323.428 255.294C323.919 254.455 324.996 254.171 325.835 254.662C326.674 255.153 326.958 256.231 326.467 257.07ZM320.693 270.224C319.586 272.121 317.15 272.759 315.255 271.652C313.358 270.544 312.72 268.111 313.828 266.213C314.935 264.316 317.371 263.678 319.266 264.786C321.161 265.893 321.801 268.329 320.693 270.224ZM334.343 268.526C334.115 268.563 333.881 268.556 333.656 268.503C333.431 268.45 333.219 268.354 333.031 268.219C332.843 268.084 332.684 267.914 332.562 267.717C332.44 267.521 332.358 267.303 332.32 267.074C332.283 266.846 332.29 266.613 332.343 266.388C332.396 266.163 332.492 265.95 332.627 265.762C332.762 265.575 332.932 265.415 333.129 265.293C333.325 265.171 333.544 265.089 333.772 265.052C334 265.014 334.233 265.022 334.458 265.075C334.683 265.127 334.896 265.224 335.084 265.359C335.272 265.493 335.431 265.664 335.553 265.86C335.675 266.057 335.757 266.275 335.794 266.503C335.832 266.731 335.824 266.965 335.771 267.19C335.719 267.415 335.622 267.627 335.488 267.815C335.353 268.003 335.182 268.163 334.986 268.284C334.789 268.406 334.571 268.488 334.343 268.526ZM332.149 281.405C331.921 281.443 331.688 281.435 331.463 281.383C331.238 281.33 331.025 281.234 330.837 281.099C330.649 280.964 330.49 280.793 330.368 280.597C330.246 280.4 330.164 280.182 330.127 279.954C330.089 279.726 330.097 279.492 330.15 279.267C330.202 279.042 330.299 278.83 330.434 278.642C330.568 278.454 330.739 278.295 330.935 278.173C331.132 278.051 331.35 277.969 331.578 277.931C331.806 277.894 332.04 277.901 332.265 277.954C332.49 278.007 332.702 278.103 332.89 278.238C333.078 278.373 333.238 278.543 333.359 278.74C333.481 278.936 333.563 279.155 333.601 279.383C333.638 279.611 333.631 279.844 333.578 280.069C333.525 280.294 333.429 280.507 333.294 280.695C333.159 280.882 332.989 281.042 332.792 281.164C332.596 281.286 332.378 281.368 332.149 281.405ZM346.534 315.799C346.306 315.837 346.073 315.829 345.848 315.776C345.623 315.724 345.41 315.627 345.222 315.492C345.034 315.358 344.875 315.187 344.753 314.991C344.631 314.794 344.549 314.576 344.512 314.348C344.474 314.119 344.482 313.886 344.534 313.661C344.587 313.436 344.683 313.223 344.818 313.035C344.953 312.848 345.123 312.688 345.32 312.566C345.516 312.444 345.735 312.362 345.963 312.325C346.191 312.288 346.425 312.295 346.65 312.348C346.875 312.401 347.087 312.497 347.275 312.632C347.463 312.767 347.622 312.937 347.744 313.133C347.866 313.33 347.948 313.548 347.986 313.777C348.023 314.005 348.016 314.238 347.963 314.463C347.91 314.688 347.814 314.901 347.679 315.089C347.544 315.276 347.374 315.436 347.177 315.558C346.981 315.68 346.762 315.762 346.534 315.799ZM349.381 147.135C350.285 146.776 351.308 147.219 351.667 148.121C352.026 149.026 351.583 150.049 350.681 150.408C349.777 150.767 348.754 150.323 348.395 149.421C348.035 148.517 348.479 147.494 349.381 147.135ZM354.332 152.686C355.237 152.327 356.26 152.77 356.619 153.672C356.978 154.576 356.534 155.599 355.632 155.958C354.728 156.317 353.705 155.874 353.346 154.972C352.987 154.068 353.43 153.045 354.332 152.686ZM341.485 148.303C343.527 147.494 345.838 148.491 346.647 150.533C347.456 152.575 346.459 154.886 344.417 155.695C342.375 156.504 340.064 155.506 339.255 153.464C338.446 151.422 339.443 149.112 341.485 148.301V148.303ZM332.924 148.971C333.776 149.439 334.09 150.509 333.622 151.362C333.155 152.214 332.084 152.528 331.232 152.06C330.38 151.593 330.066 150.522 330.534 149.67C331.001 148.818 332.072 148.504 332.924 148.971Z" fill="#C46A58"/>
<path d="M379.734 416.409L335.16 403.019L289.836 436.558L280.537 425.708L243.06 419.206L242.563 397.81L200.406 411.803C200.406 411.803 186.765 490.805 291.385 490.805C396.005 490.805 379.732 416.409 379.732 416.409H379.734Z" fill="#F4B683"/>
<path d="M381.27 367.74C415.216 367.74 442.735 340.221 442.735 306.275C442.735 272.328 415.216 244.809 381.27 244.809C347.323 244.809 319.804 272.328 319.804 306.275C319.804 340.221 347.323 367.74 381.27 367.74Z" fill="#F4B683"/>
<mask id="mask0_466_556" style="mask-type:luminance" maskUnits="userSpaceOnUse" x="319" y="244" width="124" height="124">
<path d="M381.27 367.74C415.216 367.74 442.735 340.221 442.735 306.275C442.735 272.328 415.216 244.809 381.27 244.809C347.323 244.809 319.804 272.328 319.804 306.275C319.804 340.221 347.323 367.74 381.27 367.74Z" fill="white"/>
</mask>
<g mask="url(#mask0_466_556)">
<path d="M359.468 266.125C358.347 268.041 355.887 268.688 353.969 267.57C352.052 266.451 351.405 263.99 352.524 262.071C353.642 260.155 356.106 259.508 358.023 260.626C359.939 261.744 360.586 264.206 359.468 266.125ZM391.346 267.847C390.225 269.763 387.766 270.41 385.847 269.292C383.93 268.173 383.284 265.712 384.402 263.793C385.523 261.876 387.982 261.23 389.901 262.348C391.817 263.468 392.464 265.928 391.346 267.847ZM378.918 288.743C377.798 290.659 375.338 291.306 373.42 290.188C371.503 289.067 370.856 286.608 371.975 284.689C373.093 282.772 375.555 282.125 377.473 283.244C379.39 284.362 380.037 286.824 378.918 288.743ZM407.58 287.425C405.162 291.568 399.842 292.965 395.7 290.547C391.558 288.128 390.16 282.809 392.579 278.667C394.997 274.524 400.316 273.127 404.459 275.545C408.601 277.964 409.998 283.283 407.58 287.425ZM425.915 291.187C424.796 293.103 422.333 293.75 420.416 292.632C418.5 291.513 417.853 289.052 418.971 287.133C420.089 285.217 422.551 284.57 424.47 285.688C426.386 286.809 427.033 289.268 425.915 291.187ZM413.488 312.083C412.367 313.999 409.908 314.646 407.989 313.528C406.072 312.409 405.425 309.948 406.544 308.029C407.662 306.113 410.124 305.466 412.043 306.584C413.959 307.702 414.606 310.164 413.488 312.083ZM330.326 284.018C329.207 285.935 326.746 286.582 324.827 285.463C322.91 284.343 322.264 281.883 323.382 279.965C324.5 278.048 326.962 277.401 328.881 278.52C330.797 279.64 331.444 282.1 330.326 284.018ZM362.204 285.74C361.086 287.657 358.624 288.303 356.705 287.185C354.789 286.067 354.142 283.605 355.26 281.686C356.379 279.77 358.842 279.123 360.759 280.241C362.675 281.362 363.322 283.821 362.204 285.74ZM349.022 315.773C346.493 320.104 340.934 321.564 336.603 319.035C332.273 316.506 330.812 310.947 333.341 306.619C335.87 302.288 341.429 300.828 345.758 303.357C350.088 305.885 351.548 311.445 349.02 315.775L349.022 315.773ZM380.184 311.897C377.993 312.258 375.925 310.774 375.563 308.585C375.202 306.394 376.686 304.326 378.875 303.965C381.066 303.603 383.134 305.087 383.496 307.276C383.857 309.468 382.373 311.536 380.184 311.897ZM400.634 346.25C393.634 347.405 387.024 342.665 385.869 335.665C384.714 328.665 389.453 322.055 396.453 320.9C403.453 319.745 410.063 324.484 411.218 331.484C412.374 338.484 407.634 345.094 400.634 346.25ZM375.178 341.305C372.987 341.666 370.919 340.182 370.558 337.993C370.197 335.802 371.681 333.734 373.87 333.372C376.061 333.011 378.129 334.495 378.49 336.684C378.851 338.875 377.367 340.943 375.178 341.305Z" fill="#C46A58"/>
</g>
<path d="M328.528 265.177C303.983 294.542 307.892 338.244 337.257 362.789C366.621 387.334 410.323 383.425 434.868 354.061C459.413 324.696 455.504 280.994 426.14 256.449C396.775 231.904 353.073 235.813 328.528 265.177ZM339.842 274.632C359.165 251.515 393.567 248.439 416.685 267.762C439.802 287.086 442.878 321.488 423.555 344.606C404.232 367.723 369.829 370.799 346.712 351.476C323.594 332.152 320.518 297.75 339.842 274.632Z" fill="#7D8ED6"/>
<path d="M329.856 260.522C305.311 289.887 309.22 333.589 338.585 358.134C367.949 382.679 411.651 378.77 436.196 349.406C460.741 320.041 456.833 276.339 427.468 251.794C398.103 227.249 354.402 231.158 329.856 260.522ZM341.17 269.977C360.493 246.86 394.895 243.784 418.013 263.107C441.13 282.431 444.206 316.833 424.883 339.95C405.56 363.068 371.157 366.144 348.04 346.821C324.922 327.497 321.846 293.095 341.17 269.977Z" fill="#B9C7FF"/>
<path d="M374.718 251.05C362.059 252.997 350.03 259.378 341.17 269.977C321.846 293.095 324.922 327.497 348.04 346.821C358.639 355.681 371.609 359.827 384.413 359.497C369.463 361.794 353.636 357.902 341.118 347.439C318 328.116 314.924 293.713 334.248 270.596C344.711 258.078 359.597 251.439 374.718 251.05Z" fill="#989E9C"/>
<path d="M339.283 268.403C319.09 292.56 322.305 328.514 346.463 348.707C370.621 368.9 406.574 365.685 426.767 341.527C446.96 317.369 443.746 281.416 419.588 261.223C395.43 241.03 359.476 244.245 339.283 268.403ZM341.17 269.979C360.493 246.862 394.895 243.786 418.013 263.109C441.13 282.433 444.206 316.835 424.883 339.953C405.56 363.07 371.157 366.146 348.04 346.823C324.922 327.499 321.846 293.097 341.17 269.979Z" fill="white"/>
<path d="M447.119 372.569L422.343 351.86L433.062 339.035L457.838 359.744L447.119 372.569Z" fill="#B9C7FF"/>
<path d="M450.611 383.897L521.052 442.775C525.544 446.53 532.233 445.933 535.988 441.441L541.392 434.977C545.147 430.484 544.55 423.796 540.057 420.041L469.617 361.162C467.503 359.395 464.903 358.592 462.353 358.705C459.48 358.83 456.67 360.117 454.68 362.499L449.277 368.963C445.521 373.455 446.118 380.144 450.611 383.899V383.897Z" fill="#636B8F"/>
<path opacity="0.45" d="M349.305 287.957C347.605 292.338 346.671 297.101 346.671 302.083C346.671 323.66 364.162 341.149 385.737 341.149C396.81 341.149 406.808 336.541 413.916 329.139C408.253 343.734 394.078 354.08 377.482 354.08C355.905 354.08 338.416 336.589 338.416 315.014C338.416 304.512 342.561 294.977 349.303 287.957H349.305Z" fill="white"/>
<path d="M489.098 449.996L365.533 411.803L303.403 459.674L282.97 462.592L262.537 459.674L200.408 411.803L76.843 449.996L89.5601 545.903C125.248 558.213 167.887 554.901 199.22 553.461C274.975 549.978 351.968 555.431 428.164 558.248C439.571 558.67 451.079 559.072 462.545 558.892C467.268 554.72 484.746 561.702 489.243 557.218L489.098 449.998V449.996Z" fill="#75D2FE"/>
</g>
<defs>
<clipPath id="clip0_466_556">
<rect width="595" height="544" fill="white"/>
</clipPath>
</defs>
</svg>
