<svg width="509" height="530" viewBox="0 0 509 530" fill="none" xmlns="http://www.w3.org/2000/svg">
<g clip-path="url(#clip0_375_65)">
<path d="M211.234 373.174C211.234 373.174 151.088 374.791 113.28 291.135C75.4727 207.479 116.366 176.463 131.792 110.312C147.218 44.1606 169.201 18.3341 187.486 10.5051C211.443 0.269545 230.57 5.35675 243.625 4.05727C256.256 2.79567 282.796 -5.65388 314.49 7.74594C350.354 22.9114 378.703 58.7346 387.961 157.932C396.166 245.854 504.318 214.457 502.775 312.667C501.232 410.877 352.364 396.524 350.063 397.136C347.762 397.748 211.234 373.174 211.234 373.174Z" fill="#271E3A"/>
<path d="M413.361 441.039H87.8273C86.2874 396.955 131.792 379.165 174.211 361.593C196.003 352.56 204.356 322.841 207.334 296.036C210.162 270.626 208.157 247.856 208.157 247.856L250.308 217.423V217.015L250.599 217.219L250.889 217.015V217.423L293.02 247.856C293.02 247.856 288.052 304.319 304.808 338.613C309.922 349.076 317.058 357.476 326.972 361.587C369.4 379.165 414.901 396.955 413.361 441.039Z" fill="#FEDCDB"/>
<path d="M207.34 296.042C210.167 270.632 208.163 247.862 208.163 247.862L250.314 217.429V217.021L250.605 217.225L250.895 217.021V217.429L293.026 247.862C293.026 247.862 288.058 304.325 304.814 338.618C273.353 335.268 232.018 318.261 207.34 296.042Z" fill="#FECAC9"/>
<path d="M327.957 205.302C326.525 216.208 324.601 225.776 322.027 232.734C308.719 268.7 265.92 290.555 250.884 291.135C235.841 290.552 193.042 268.7 179.734 232.734C174.281 217.997 171.744 191.57 170.651 165.508C170.439 160.581 170.285 155.665 170.172 150.846C169.411 118.957 170.474 91.21 170.474 91.21L211.914 83.1858L248.925 76.0241L291.393 83.8559L331.29 91.2158C331.29 91.2158 331.845 105.752 331.871 125.865C331.883 149.471 331.171 180.769 327.957 205.302Z" fill="#FEDCDB"/>
<path d="M220.631 110.288C218.597 118.269 214.285 129.096 205.179 138.609C191.232 153.16 175.725 162.609 170.646 165.508C170.433 160.581 170.279 155.665 170.166 150.846L220.543 91.4081C222.179 97.5909 222.209 104.091 220.631 110.288Z" fill="#FECAC9"/>
<path d="M327.957 205.299H327.789C327.789 205.299 273.765 167.725 253.865 149.614C228.141 126.223 228.914 108.465 211.925 83.1829C211.768 82.9537 211.614 82.7235 211.463 82.4924C211.463 82.4924 240.159 60.4303 243.666 60.4303C245.924 60.4303 264.877 62.9535 291.393 83.8472C303.597 93.4622 317.372 106.941 331.868 125.856C331.883 149.471 331.171 180.769 327.957 205.299Z" fill="#FECAC9"/>
<path d="M238.221 211.295C231.69 211.281 225.178 210.605 218.783 209.279L219.364 206.511C225.571 207.798 231.891 208.454 238.23 208.469H238.389V211.295H238.221ZM200.111 202.729C195.053 199.964 189.607 196.177 183.93 191.477L185.723 189.298C191.264 193.884 196.561 197.566 201.462 200.247L200.111 202.729Z" fill="url(#paint0_linear_375_65)"/>
<path d="M178.479 203.4L170.076 176.501L197.511 182.649L178.479 203.4Z" fill="url(#paint1_linear_375_65)"/>
<path d="M169.893 150.537C169.893 150.537 170.474 123.691 182.62 109.164C192.499 97.3402 207.34 79.8555 216.17 85.7848C220.201 88.4915 239.511 123.053 264.438 140.319C294.453 161.111 330.828 171.478 330.828 171.478C330.828 171.478 366.567 98.8845 356.147 79.3864C345.728 59.8884 267.071 45.0667 245.09 50.1568C223.109 55.2469 149.65 76.8982 149.65 76.8982L169.893 150.537Z" fill="#271E3A"/>
<path d="M49.8106 474.461H496.72C496.72 474.461 473.223 437.4 415.831 414.857C389.181 404.391 355.433 404.91 313.958 420.133C293.294 427.709 272.347 412.459 226.909 394.715C198.042 383.439 152.427 387.722 128.119 407.43C115.131 417.96 102.745 428.408 83.1813 428.408C29.8404 428.408 10.9773 474.476 10.9773 474.476L49.8106 474.461Z" fill="#F8F4FF"/>
<path d="M166.116 160.546C166.116 160.546 193.94 145.686 210.685 120.32C222.191 102.891 223.304 81.3823 223.304 81.3823C223.304 81.3823 187.571 86.2014 173.554 106.035C159.537 125.868 166.116 160.546 166.116 160.546Z" fill="#2D2341"/>
<path d="M402.843 247.87C402.843 247.87 414.009 241.836 414.756 235.077C415.503 228.317 409.134 228.958 409.102 224.649C409.07 220.339 409.683 216.689 406.222 214.763C402.762 212.837 395.579 220.15 389.495 211.121C386.953 207.348 378.892 208.743 377.582 214.139C372.677 234.299 402.843 247.87 402.843 247.87Z" fill="#6847EE"/>
<path d="M403.982 260.708C405.467 262.616 404.592 265.422 402.332 266.273C399.941 267.173 397.363 267.843 395.303 267.636C393.667 267.476 391.817 266.818 390.041 265.982C389.487 265.716 389.009 265.313 388.653 264.811C388.297 264.308 388.075 263.723 388.007 263.111C387.939 262.498 388.028 261.879 388.266 261.311C388.503 260.742 388.881 260.244 389.364 259.863L389.387 259.845C389.786 259.478 389.841 255.766 389.82 252.649C389.806 250.341 389.745 248.377 389.745 248.377L401.399 239.954L403.102 238.724C403.102 238.724 402.19 257.751 403.727 260.329C403.803 260.461 403.889 260.587 403.982 260.708Z" fill="#FEDCDB"/>
<path d="M399.975 250.163C398.636 252.276 394.01 253.368 389.82 252.649C389.806 250.341 389.745 248.377 389.745 248.377L401.399 239.954C401.225 244.482 400.83 248.817 399.975 250.163Z" fill="#FECAC9"/>
<path d="M398.273 241.81C399.261 243.401 402.468 242.739 405.438 240.336C408.408 237.932 410.014 234.695 409.023 233.104C408.033 231.513 404.828 232.175 401.858 234.578C398.889 236.982 397.297 240.21 398.273 241.81Z" fill="#FECAC9"/>
<path d="M385.488 226.572C385.217 226.497 384.933 226.484 384.657 226.535C384.381 226.585 384.12 226.698 383.893 226.864C383.666 227.029 383.479 227.244 383.346 227.492C383.213 227.74 383.138 228.015 383.126 228.297C382.92 233.468 382.835 245.041 386.107 248.214C390.343 252.34 399.708 251.44 401.713 248.278C403.294 245.787 403.308 233.084 403.241 227.825C403.238 227.55 403.175 227.279 403.055 227.032C402.936 226.785 402.763 226.567 402.55 226.394C402.337 226.222 402.088 226.098 401.822 226.033C401.556 225.968 401.278 225.963 401.01 226.018C398.685 226.484 394.94 227.143 391.639 227.251C389.567 227.332 387.493 227.103 385.488 226.572Z" fill="#FEDCDB"/>
<path d="M403.503 233.221C403.419 233.891 403.175 234.386 402.518 234.287C400.347 233.969 401.873 230.499 398.032 229.144C396.221 228.506 390.495 229.791 387.319 229.407C385.226 229.174 383.231 228.399 381.528 227.157C381.528 227.157 391.68 223.48 401.187 224.334C406.022 224.768 403.666 231.857 403.503 233.221Z" fill="#6847EE"/>
<path d="M326.505 284.804C326.505 284.804 322.652 280.94 320.534 280.165C319.052 279.626 316.576 278.236 315.216 277.447C315.076 277.364 314.914 277.328 314.752 277.343C314.59 277.357 314.436 277.422 314.313 277.528C314.19 277.634 314.102 277.776 314.063 277.935C314.024 278.093 314.035 278.259 314.095 278.411C314.336 278.942 314.655 279.433 315.042 279.868L316.957 282.149C316.957 282.149 310.701 279.48 309.498 279.868C308.295 280.255 308.627 280.891 308.627 280.891C308.627 280.891 306.163 279.786 305.593 280.891C305.024 281.995 307.723 282.959 307.723 282.959C307.723 282.959 306.134 283.446 306.662 284.125C307.191 284.804 310.66 287.694 315.815 289.288C320.969 290.881 325.014 290.351 325.014 290.351L326.505 284.804Z" fill="#FEDCDB"/>
<path d="M382.184 275.433C382.033 276.943 381.368 279.338 380.336 282.17C376.972 291.441 369.696 305.403 363.574 308.392C361.566 309.377 359.916 309.803 358.545 309.803C358.068 309.806 357.592 309.751 357.13 309.637H357.086C356.42 309.465 355.795 309.161 355.25 308.742L322.062 292.679C322.002 291.925 321.99 291.168 322.024 290.412C322.1 288.749 322.416 286.54 323.5 285.095C323.954 284.478 324.451 283.893 324.988 283.347C325.604 282.687 326.314 282.121 327.094 281.669C327.094 281.669 349.895 286.301 354.648 287.979C355.338 288.223 355.994 288.553 356.601 288.961C358.635 286.077 360.959 283.181 362.546 280.314C370.638 265.859 378.366 263.196 378.366 263.196C378.366 263.196 382.841 268.991 382.184 275.433Z" fill="#75D2FE"/>
<path d="M416.941 457.043C416.941 457.043 418.414 461.673 417.551 466.017C417.365 466.967 415.009 469.027 415.259 471.463C415.357 472.272 415.749 473.017 416.36 473.554C416.971 474.092 417.758 474.385 418.571 474.376L433.782 474.417C436.356 474.417 438.018 471.62 436.711 469.397C436.069 468.304 434.854 467.328 432.846 466.824C427.195 465.408 427.86 457.058 427.86 457.058L416.941 457.043ZM370.638 455.962L368.447 472.115C368.361 472.751 368.049 473.333 367.568 473.756C367.088 474.179 366.471 474.414 365.832 474.417H342.663C342.196 474.418 341.738 474.296 341.334 474.063C340.93 473.83 340.594 473.494 340.361 473.089C340.128 472.684 340.005 472.224 340.006 471.757C340.006 471.289 340.13 470.83 340.364 470.426C341.582 468.334 355.624 466.3 357.743 464.176C359.486 462.428 359.928 456.35 359.928 456.35L370.638 455.962Z" fill="#1E0A4F"/>
<path d="M401.76 327.523C401.76 327.523 399.941 341.386 396.425 365.057C396.41 365.159 396.396 365.264 396.378 365.366C392.865 389.039 373.261 459.706 372.953 460.808L356.769 460.77L371.797 326.422L401.76 327.523Z" fill="#6A3AFF"/>
<path d="M396.425 365.057C396.41 365.159 396.396 365.264 396.378 365.366C392.865 389.039 373.261 459.706 372.953 460.808C373.203 459.479 392.22 358.131 392.604 359.282C392.752 359.737 394.434 362.207 396.425 365.057Z" fill="#5626EA"/>
<path d="M420.251 327.523C423.136 340.752 424.891 354.204 425.498 367.732L429.673 460.822L411.76 460.787C411.76 460.787 398.976 401.981 395.547 373.774C392.119 345.567 389.338 327.526 389.338 327.526L420.251 327.523Z" fill="#6A3AFF"/>
<path d="M413.603 327.523L426.143 460.633" stroke="#5626EA" stroke-width="10.61" stroke-miterlimit="10"/>
<path d="M380.337 282.17C376.972 291.441 369.696 305.403 363.574 308.392C361.566 309.377 359.916 309.803 358.545 309.803C358.068 309.806 357.593 309.751 357.13 309.637H357.086L351.344 305.313C351.344 305.313 354.523 304.672 361.293 296.688C368.063 288.705 376.205 266.649 376.205 266.649C377.879 271.738 379.258 276.921 380.337 282.17Z" fill="#6EC6F0"/>
<path d="M412.388 329.898C412.519 332.841 412.775 349.358 413.28 351.983C413.408 352.65 413.78 353.244 414.324 353.648C414.867 354.053 415.542 354.238 416.215 354.169C421.212 353.65 426.143 353.099 426.143 353.099C426.143 353.099 422.657 285.48 420.733 273.303C419.46 265.271 410.145 261.649 406.034 260.414C405.203 260.166 404.581 260.017 404.29 259.947L404.093 259.907L401.53 259.933L394.702 260.003L393.022 260.02L388.803 260.064C388.803 260.064 388.594 260.087 388.222 260.137C385.898 260.478 377.14 262.054 374.005 266.993C370.96 271.794 369.888 292.088 369.545 309.532C369.353 319.176 367.421 349.352 367.421 349.352C367.421 349.352 376.429 353.088 391.012 354.635C395.338 355.092 401.722 355.063 407.039 354.871C408.329 354.826 409.551 354.276 410.442 353.34C411.333 352.403 411.823 351.154 411.807 349.859C411.763 345.643 411.734 340.029 411.859 339.114C411.868 339.125 412.391 326.789 412.388 329.898Z" fill="#75D2FE"/>
<path d="M411.871 288.183C410.293 296.135 406.754 303.564 401.576 309.791C396.971 315.327 391.093 321.649 385.86 324.892C380.11 328.456 373.909 331.11 369.438 332.791C369.394 327.966 369.359 319.187 369.551 309.543L411.871 288.183Z" fill="#6EC6F0"/>
<path d="M322.727 242.302L329.245 250.531C331.371 253.2 332.462 256.551 332.316 259.965C332.065 266.725 334.248 273.351 338.467 278.63L377.89 328.397C378.976 329.768 379.782 331.34 380.263 333.023C380.743 334.706 380.888 336.468 380.689 338.207C380.49 339.946 379.951 341.629 379.104 343.159C378.256 344.69 377.116 346.038 375.749 347.126C374.382 348.215 372.814 349.024 371.136 349.505C369.457 349.987 367.701 350.132 365.966 349.933C364.232 349.733 362.554 349.193 361.027 348.343C359.501 347.493 358.157 346.35 357.071 344.979L317.648 295.211C313.477 289.894 307.536 286.261 300.912 284.978C297.564 284.349 294.555 282.528 292.439 279.85L285.922 271.622L322.727 242.302Z" fill="#CCDFFF"/>
<path d="M286.059 271.791C287.971 274.204 297.76 269.597 307.926 261.5C318.093 253.403 324.779 244.893 322.873 242.471C320.966 240.05 307.328 239.77 297.158 247.87C286.988 255.97 284.15 269.379 286.059 271.791Z" fill="#6A3AFF"/>
<path d="M384.599 358.297C385.529 357.556 386.128 356.475 386.264 355.292C386.4 354.108 386.061 352.919 385.323 351.986L373.636 337.234C372.897 336.303 371.818 335.703 370.639 335.568C369.459 335.432 368.273 335.772 367.343 336.512C366.413 337.253 365.815 338.334 365.679 339.518C365.544 340.701 365.883 341.89 366.622 342.823L378.306 357.575C379.045 358.507 380.123 359.107 381.303 359.242C382.483 359.378 383.669 359.038 384.599 358.297Z" fill="#CCDFFF"/>
<path d="M383.001 356.281C383.931 355.54 384.53 354.459 384.666 353.276C384.801 352.092 384.463 350.903 383.724 349.97L372.041 335.218C371.675 334.756 371.222 334.371 370.707 334.084C370.193 333.798 369.627 333.616 369.042 333.549C368.457 333.482 367.865 333.531 367.299 333.693C366.734 333.856 366.205 334.128 365.745 334.496C364.815 335.237 364.218 336.318 364.083 337.502C363.947 338.685 364.286 339.874 365.024 340.807L376.707 355.555C377.446 356.488 378.524 357.089 379.704 357.225C380.885 357.361 382.07 357.021 383.001 356.281Z" fill="#CCDFFF"/>
<path d="M381.403 354.276C382.333 353.536 382.932 352.455 383.068 351.271C383.203 350.088 382.865 348.899 382.126 347.965L370.443 333.217C369.704 332.284 368.626 331.683 367.446 331.547C366.266 331.411 365.08 331.751 364.149 332.491C363.219 333.232 362.62 334.314 362.484 335.498C362.349 336.682 362.687 337.871 363.426 338.805L375.109 353.554C375.475 354.016 375.928 354.401 376.442 354.687C376.957 354.974 377.522 355.156 378.107 355.223C378.691 355.29 379.283 355.241 379.849 355.078C380.414 354.916 380.942 354.644 381.403 354.276Z" fill="#CCDFFF"/>
<path d="M330.453 256.509C330.405 257.428 330.208 258.334 329.872 259.19C329.698 259.612 329.541 260.064 329.332 260.46L329.041 261.081C328.942 261.291 328.823 261.486 328.713 261.69C327.806 263.292 326.747 264.804 325.551 266.203C323.174 268.999 320.512 271.538 317.608 273.778C314.748 276.067 311.687 278.091 308.464 279.827C306.839 280.686 305.145 281.405 303.399 281.977C302.96 282.109 302.528 282.248 302.071 282.345C301.848 282.397 301.627 282.452 301.4 282.499L300.72 282.615C299.816 282.774 298.891 282.774 297.986 282.615C298.437 282.641 298.89 282.613 299.334 282.531L299.666 282.481L299.997 282.409C300.215 282.359 300.436 282.318 300.651 282.251L301.296 282.065C301.511 281.998 301.72 281.922 301.932 281.849C302.359 281.715 302.772 281.537 303.187 281.368C303.603 281.199 304.009 281.01 304.416 280.827C304.62 280.73 304.826 280.643 305.023 280.535L305.622 280.223C306.424 279.827 307.2 279.373 307.978 278.93C311.05 277.058 314.001 274.993 316.811 272.747C319.659 270.552 322.33 268.137 324.802 265.524L325.711 264.531L326.583 263.496C326.874 263.161 327.135 262.791 327.411 262.439C327.545 262.258 327.702 262.083 327.812 261.9L328.19 261.343C329.16 259.875 330.093 258.295 330.453 256.509Z" fill="#9EC1FF"/>
<path d="M404.72 258.77C404.72 258.834 404.72 258.896 404.703 258.96C404.629 259.463 404.381 259.925 404 260.262C403.62 260.599 403.133 260.79 402.625 260.801C400.501 260.845 396.986 260.897 393.984 260.859C391.189 260.821 388.838 260.699 388.463 260.411C388.369 260.336 388.29 260.243 388.231 260.137C387.447 258.864 387.464 254.735 388.126 253.939C388.847 253.065 401.879 253.462 403.66 253.415C404.831 253.38 404.845 256.582 404.72 258.77Z" fill="#75D2FE"/>
<path d="M406.034 260.414C404.311 261.184 402.475 261.667 400.597 261.844C397.279 262.173 395.129 261.521 393.984 260.859C393.598 260.665 393.267 260.377 393.022 260.02C392.802 259.577 393.159 259.796 394.708 260.02C395.892 260.179 397.086 260.262 398.282 260.268C399.374 260.278 400.465 260.172 401.536 259.95C402.622 259.728 403.685 259.402 404.709 258.977C404.656 259.336 404.514 259.676 404.296 259.965C404.584 260.017 405.203 260.166 406.034 260.414Z" fill="#6EC6F0"/>
<path d="M338.51 306.973C333.693 306.201 331.334 305.91 331.334 305.91C331.334 305.91 331.081 307.323 333.158 308.381C334.321 308.963 336.497 309.718 338.153 310.245C336.555 310.321 335.015 310.231 333.853 309.814C332.127 309.197 329.401 308.835 328.123 308.092C327.881 307.946 327.603 307.874 327.321 307.884C327.039 307.894 326.766 307.987 326.535 308.15C326.305 308.313 326.127 308.54 326.023 308.803C325.919 309.066 325.893 309.354 325.95 309.631C326.612 313.153 329.003 317.943 330.947 319.225C333.94 321.198 346.106 318.06 346.106 318.06V308.914C346.106 308.914 343.328 307.746 338.51 306.973Z" fill="#FEDCDB"/>
<path d="M421.439 275.608C421.085 265.55 407.736 262.252 402.553 270.868C396.954 280.156 389.228 292.487 385.427 296.365C384.714 297.101 384.115 297.94 383.649 298.853L345.065 306.583L345.048 306.633C343.427 311.286 343.694 316.391 345.792 320.848C348.148 320.848 390.477 314.925 391.939 314.362C392.305 314.22 392.679 314.071 393.069 313.864C404.302 308.261 421.451 287.059 421.451 276.121C421.448 275.932 421.445 275.763 421.439 275.608Z" fill="#75D2FE"/>
<path d="M62.9061 246.923C55.2498 250.711 46.0536 246.233 44.1359 237.891C42.9388 232.69 42.4187 226.207 45.7979 222.592C52.0595 215.89 63.9027 215.546 72.0674 221.677C77.835 226.006 77.0069 243.203 67.2558 248.272C67.1221 248.351 63.0397 246.856 62.9061 246.923Z" fill="#271E3A"/>
<path d="M45.7137 237.678C43.902 241.387 41.0816 244.506 37.578 246.676C31.8511 250.126 30.0235 257.398 36.009 260.294C41.9945 263.19 51.6643 265.23 53.4193 261.623C55.1743 258.016 53.9278 245.49 53.9278 245.49L45.7137 237.678Z" fill="#271E3A"/>
<path d="M57.8245 244.843C58.4956 243.337 56.4754 240.967 53.3124 239.549C50.1493 238.132 47.0411 238.204 46.3699 239.709C45.6988 241.215 47.719 243.585 50.882 245.003C54.0451 246.42 57.1534 246.348 57.8245 244.843Z" fill="#FECAC9"/>
<path d="M47.3235 262.625C46.9351 262.834 46.5953 263.123 46.3265 263.474C46.0577 263.824 45.8659 264.227 45.7637 264.657C45.6616 265.087 45.6515 265.534 45.734 265.968C45.8166 266.402 45.9899 266.814 46.2426 267.176C48.3056 270.107 52.0015 273.86 56.9468 272.884C60.9013 272.106 64.911 269.347 67.9241 266.794C69.8505 265.16 69.1154 262.074 66.6863 261.384L66.6253 261.363C65.2016 260.874 64.7628 257.695 64.6844 254.589C64.6436 252.471 64.7173 250.353 64.9052 248.243L52.3008 243.468L51.4756 243.156C51.4756 243.156 53.341 256.198 51.6237 259.07C50.7637 260.516 48.9303 261.754 47.3235 262.625Z" fill="#FEDCDB"/>
<path d="M52.3007 243.468C52.629 245.633 53.1288 247.873 53.8726 249.42C55.4997 252.8 59.4281 255.326 64.6843 254.589C64.6435 252.471 64.7172 250.353 64.9051 248.243L52.3007 243.468Z" fill="#FECAC9"/>
<path d="M70.1353 228.27C70.6853 228.533 71.1504 228.945 71.4772 229.461C71.8041 229.976 71.9795 230.573 71.9832 231.184C72.0239 236.079 71.6927 250.295 66.5846 251.798C59.8233 254.193 54.6717 251.384 52.7453 247.384C51.5278 244.858 50.9729 240.481 50.7288 237.597C50.6651 236.833 50.8725 236.072 51.3142 235.446C51.756 234.821 52.4038 234.372 53.1434 234.179C54.6746 233.777 56.6097 233.133 58.1555 232.186C61.9124 229.882 64.5042 226.359 66.9885 227.111C68.0639 227.421 69.1156 227.808 70.1353 228.27ZM124.467 274.763C124.467 274.763 128.099 269.74 130.339 268.49C131.902 267.616 134.433 265.617 135.816 264.487C135.959 264.371 136.133 264.303 136.316 264.291C136.499 264.278 136.681 264.323 136.838 264.419C136.995 264.515 137.118 264.657 137.191 264.825C137.264 264.994 137.283 265.181 137.246 265.361C137.072 266.002 136.803 266.613 136.447 267.173L134.703 270.087C134.703 270.087 141.247 265.973 142.662 266.188C144.077 266.404 143.824 267.179 143.824 267.179C143.824 267.179 146.39 265.501 147.227 266.634C148.063 267.768 145.193 269.338 145.193 269.338C145.193 269.338 147.064 269.6 146.587 270.451C146.111 271.302 142.74 275.174 137.246 277.887C131.751 280.599 127.114 280.73 127.114 280.73L124.467 274.763Z" fill="#FEDCDB"/>
<path d="M68.4878 273.988C68.7735 274.971 69.1379 275.929 69.5774 276.852C70.0656 277.922 70.6845 279.137 71.4109 280.439C73.2356 283.731 75.0864 287.907 77.0419 291.942C80.1276 298.32 83.4633 304.345 87.3422 305.98C87.5251 306.059 87.7123 306.127 87.903 306.184C90.0735 306.848 91.7907 307.011 93.165 306.79C93.6434 306.717 94.1109 306.585 94.5568 306.397L94.5975 306.376C95.2359 306.098 95.812 305.694 96.2915 305.187L131.449 281.622C131.412 281.104 131.349 280.589 131.26 280.078C131.223 279.848 131.179 279.603 131.127 279.346C130.787 277.694 130.118 275.532 128.802 274.259C128.25 273.719 127.661 273.219 127.038 272.762C126.812 272.595 126.597 272.447 126.396 272.319C125.854 271.948 125.269 271.646 124.653 271.418C124.653 271.418 100.969 282.782 96.4687 285.226C95.8159 285.58 95.2114 286.017 94.6701 286.526C92.1829 283.962 87.2609 276.427 85.1979 273.816C75.7431 261.841 71.2191 261.159 70.4723 261.133H70.359C70.0439 261.735 69.7654 262.356 69.5251 262.992C68.5837 265.378 67.3459 269.723 68.4878 273.988Z" fill="#75D2FE"/>
<path d="M69.6093 288.428L73.6771 294.792C73.9299 293.882 74.1159 293.349 74.1159 293.349C74.1159 293.349 75.2607 294.279 77.0215 291.942C80.1072 298.32 83.4429 304.345 87.3218 305.98C85.84 304.465 83.3441 301.502 80.9673 296.747C77.2597 289.343 82.9663 285.911 81.839 278.65C81.1561 274.256 76.7832 269.446 73.4418 266.334C71.2568 264.295 69.5134 262.995 69.5134 262.995L69.5628 276.852L69.6093 288.428Z" fill="#6EC6F0"/>
<path d="M64.2746 387.2L71.1493 450.968L71.1842 451.3L71.2248 453.856L71.3788 463.471L71.3963 464.528C71.4357 466.085 72.0778 467.565 73.1866 468.654C74.2953 469.744 75.7837 470.358 77.3363 470.367C78.8888 470.375 80.3837 469.777 81.504 468.699C82.6244 467.621 83.2822 466.148 83.3382 464.592L83.3993 462.314L79.8196 464.348C79.8196 464.348 79.5668 463.765 79.6394 460.484C79.6598 459.459 79.715 458.153 79.8196 456.548C79.8719 455.75 79.9387 454.992 80.0172 454.24C80.0172 454.133 80.0404 454.025 80.0549 453.917C80.0536 453.898 80.0536 453.878 80.0549 453.859C80.0724 453.687 80.0927 453.512 80.113 453.34C80.1566 452.993 80.2002 452.644 80.2496 452.294C80.2496 452.265 80.2496 452.236 80.2641 452.204C80.2874 452.049 80.3077 451.892 80.331 451.735L80.4007 451.3C80.4007 451.21 80.4268 451.099 80.4385 450.968C80.79 447.137 80.4995 426.403 80.1741 408.747C80.0104 400.002 79.8284 391.257 79.6278 382.512L79.3082 382.609L77.7188 383.095L64.2746 387.2ZM32.7693 468.669C33.6775 468.856 34.6167 468.828 35.5122 468.587C36.5571 468.308 37.5067 467.749 38.2595 466.971C39.0123 466.192 39.5401 465.223 39.7863 464.167L42.1776 453.929L44.011 446.082L51.0135 382.515L35.0473 384.01L29.5673 453.937L28.1145 461.699C27.8254 463.241 28.151 464.835 29.0215 466.138C29.8919 467.441 31.2377 468.35 32.7693 468.669Z" fill="#FEDCDB"/>
<path d="M38.287 469.417C39.2808 468.99 40.1401 468.3 40.7732 467.421C41.4062 466.542 41.7892 465.507 41.8812 464.426L43.4589 445.919L40.286 445.901L38.287 469.417Z" fill="#FECAC9"/>
<path d="M42.0236 462.748L41.152 470.755C40.9428 471.51 40.4924 472.175 39.87 472.649C39.2475 473.122 38.4873 473.378 37.7059 473.377H13.2989C9.70762 473.377 8.33037 468.619 11.4016 466.754C12.0106 466.388 12.6539 466.083 13.3222 465.842C20.1561 463.308 28.4313 459.805 28.4313 459.805C28.4313 459.805 32.9669 458.561 34.0042 460.819C35.0415 463.077 34.9369 463.625 38.2609 464.158C39.6672 464.388 42.0236 462.748 42.0236 462.748Z" fill="#1E0A4F"/>
<path d="M79.8195 464.348L83.4109 462.331L83.4719 460.105L83.6811 452.294L83.7101 450.971H80.4007C80.3803 451.114 80.36 451.586 80.3396 451.726C80.3193 451.866 80.2961 452.04 80.2728 452.195C80.2728 452.227 80.2728 452.256 80.2583 452.285C80.2089 452.635 80.1653 452.985 80.1217 453.331C80.1014 453.503 80.0839 453.678 80.0636 453.85C80.0623 453.869 80.0623 453.889 80.0636 453.908C80.0636 454.016 80.0375 454.124 80.0258 454.232C79.9474 454.983 79.8806 455.741 79.8283 456.539C79.7237 458.159 79.6685 459.453 79.6481 460.475C79.5551 463.753 79.8195 464.348 79.8195 464.348Z" fill="#FECAC9"/>
<path d="M71.3584 462.308L69.9202 470.364C69.8925 470.725 69.9396 471.088 70.0586 471.43C70.1776 471.771 70.3658 472.085 70.6114 472.35C70.8571 472.615 71.1548 472.827 71.4859 472.971C71.817 473.115 72.1743 473.189 72.5352 473.188H97.0555C97.4608 473.187 97.8606 473.093 98.2231 472.911C98.5856 472.729 98.9011 472.465 99.1446 472.141C99.388 471.816 99.5528 471.438 99.626 471.039C99.6991 470.639 99.6785 470.227 99.566 469.837C99.4698 469.506 99.3095 469.197 99.0941 468.928C98.8787 468.659 98.6125 468.435 98.3107 468.269L83.469 460.111C83.469 460.111 79.9822 458.841 78.3667 461.964C76.7512 465.088 73.9531 464.123 72.8258 464.164C71.2015 464.217 71.3584 462.308 71.3584 462.308Z" fill="#1E0A4F"/>
<path d="M29.5674 453.929H42.1777L44.0111 446.082L51.0136 382.515L35.0444 384.01L29.5674 453.929ZM64.2747 387.2L71.1494 450.968L71.1842 451.3L71.2249 453.856H80.0492C80.0666 453.684 80.087 453.509 80.1073 453.337C80.1509 452.99 80.1945 452.641 80.2439 452.291C80.2439 452.262 80.2439 452.233 80.2584 452.201C80.2816 452.046 80.302 451.889 80.3252 451.732L80.4008 451.3C80.4008 451.21 80.4269 451.099 80.4385 450.968C80.7901 447.137 80.4996 426.403 80.1741 408.747C80.0105 400.002 79.8284 391.257 79.6279 382.512L79.3083 382.609L77.7189 383.095L64.2747 387.2Z" fill="#FECAC9"/>
<path d="M27.9983 450.971L29.794 451.003L39.5742 451.166L42.8081 451.225L47.5036 451.303C47.5036 451.303 52.1525 410.492 56.0373 380.933C56.7346 375.651 57.4058 370.735 58.0218 366.464C58.0364 366.368 58.048 366.269 58.0625 366.173C58.7017 361.767 59.2829 358.082 59.7681 355.445C60.8519 349.556 61.2209 344.868 61.2209 341.194C61.2209 332.745 59.2015 329.677 59.2015 329.677L52.8382 327.255L41.8842 323.1C41.8842 323.1 37.3224 326.227 33.5364 336.413C31.9441 340.699 30.4884 346.235 29.5673 353.312C26.4554 377.204 27.9983 450.971 27.9983 450.971Z" fill="#6A3AFF"/>
<path d="M52.0305 325.431C52.3395 326.017 52.6103 326.623 52.8412 327.244C53.6896 329.423 55 333.654 55.7816 340.355C56.0286 342.444 56.2175 344.772 56.3308 347.348V347.639C56.4935 350.978 57.0688 357.254 57.8795 365.121C57.9173 365.5 57.9579 365.881 57.9957 366.266C58.0044 366.318 58.0102 366.371 58.0131 366.423L68.267 450.919H85.5001C85.5001 450.919 87.3858 395.064 86.4269 364.798C86.1625 356.462 85.2328 349.553 84.0269 343.915C83.4197 341.08 82.7427 338.572 82.0453 336.36C81.3799 334.257 80.6971 332.424 80.0346 330.851C79.3448 329.185 78.5559 327.562 77.6724 325.991C77.113 324.976 76.4706 324.009 75.7518 323.1L52.0305 325.431Z" fill="#6A3AFF"/>
<path d="M70.7744 333.645C70.7744 333.645 76.8936 361.109 79.2936 382.611C79.4486 383.985 79.5861 385.33 79.7062 386.647C80.0752 390.665 80.2873 394.38 80.2409 397.535C80.2002 400.953 80.1769 404.77 80.1595 408.75C80.0927 425.719 80.2031 445.712 80.2379 450.971H85.5116C85.5116 450.971 87.3973 395.117 86.4385 364.85C85.9155 348.344 82.7832 337.424 80.0462 330.903L70.7744 333.645ZM58.0276 366.464L68.2814 450.96C68.6156 447.265 61.7961 357.738 61.7961 357.738L58.0683 366.161L58.0101 366.295C58.0101 366.295 57.4087 370.73 58.0276 366.464Z" fill="#5626EA"/>
<path d="M33.5364 336.404C35.2797 335.463 39.2342 333.595 43.1248 333.834C46.9021 334.067 49.8077 338.496 55.7758 340.373C57.54 340.921 59.3768 341.198 61.2238 341.194C62.1432 341.195 63.0619 341.143 63.9754 341.04C73.651 339.933 79.9329 337.386 82.0569 336.413C81.3915 334.309 80.7087 332.477 80.0462 330.903C79.3563 329.237 78.5675 327.614 77.684 326.043C77.1233 325.01 76.477 324.025 75.7518 323.1L52.0305 325.431C52.3394 326.017 52.6102 326.623 52.8411 327.244L41.8842 323.1C41.8842 323.1 37.3224 326.218 33.5364 336.404Z" fill="#5626EA"/>
<path d="M32.627 333.406C32.627 333.406 37.9384 329.991 43.1249 330.312C48.3114 330.632 51.8765 338.898 63.9696 337.514C76.0627 336.13 82.856 332.5 82.856 332.5C82.856 332.5 75.2375 315.761 73.1048 309.074C71.498 304.016 72.9072 297.612 73.6859 294.797C73.9387 293.888 74.1247 293.355 74.1247 293.355C74.1247 293.355 75.2695 294.285 77.0303 291.948C77.7131 291.048 78.483 289.661 79.3257 287.542C81.3189 282.511 76.7571 272.517 73.4447 266.34C71.992 263.607 70.7658 261.623 70.4636 261.139C70.4142 261.063 70.3939 261.025 70.3939 261.025L65.1987 259.161C65.1987 259.161 63.897 262.45 58.4606 262.118C52.571 261.751 51.6354 259.07 51.6354 259.07L43.9007 261.719L41.7563 262.45C41.7563 262.45 42.9563 269.076 44.1273 276.925C44.7869 281.357 45.4348 286.179 45.8532 290.418C46.0653 292.6 46.2193 294.628 46.2832 296.374V296.956C46.2194 298.881 45.9476 300.793 45.4726 302.658L45.4464 302.772C44.5748 306.487 43.061 310.712 41.3786 314.814C40.6984 316.485 39.9913 318.145 39.2575 319.793C35.919 327.334 32.627 333.406 32.627 333.406Z" fill="#75D2FE"/>
<path d="M46.2861 296.971C46.2223 298.895 45.9505 300.807 45.4754 302.673L50.0575 302.44C50.0575 302.44 50.5021 301.703 49.2265 297.554C47.951 293.405 50.6125 291.893 51.3389 286.424C52.8585 274.982 45.0367 266.381 45.0367 266.381L44.1243 276.925C44.7839 281.357 45.4318 286.179 45.8502 290.418C46.0623 292.601 46.2163 294.628 46.2803 296.374C46.2861 296.569 46.2861 296.767 46.2861 296.971ZM39.272 319.808C49.6827 325.082 62.7201 331.031 62.7201 331.031C64.3479 329.912 65.7083 328.446 66.7037 326.737C68.3221 323.925 68.447 321.719 68.447 321.719C68.447 321.719 55.3515 308.987 45.4376 302.781C44.197 308.037 41.7156 314.31 39.272 319.808Z" fill="#6EC6F0"/>
<path d="M52.1293 359.894L52.5739 360.334L56.2465 363.979L56.3482 364.081C56.7973 364.527 57.3191 364.892 57.8911 365.162C57.9899 365.208 58.0916 365.255 58.1817 365.296C59.1998 365.704 60.3154 365.803 61.3892 365.58C62.463 365.356 63.4474 364.821 64.2195 364.04L84.0269 343.968C83.1046 339.498 81.768 335.124 80.0346 330.903C79.3448 329.237 78.5559 327.614 77.6724 326.043L61.1919 342.744L56.3308 347.671L52.0712 351.986C51.0352 353.044 50.4596 354.47 50.4705 355.952C50.4814 357.434 51.0779 358.852 52.1293 359.894Z" fill="#5626EA"/>
<path d="M47.5094 451.292L47.5065 451.303L50.4353 387.763L50.6736 382.547L52.0828 351.986L57.0049 356.153L57.7952 356.823L58.2455 364.952V364.955L58.5855 371.082L47.5094 451.292Z" fill="#5626EA"/>
<path d="M103.721 300.946L143.528 260.609L148.833 265.874L109.027 306.211L103.721 300.946Z" fill="#2A1A6B"/>
<path d="M49.6014 356.858L50.046 357.298L53.7157 360.946L53.8203 361.045C54.8722 362.087 56.2932 362.667 57.7716 362.66C59.2501 362.652 60.6651 362.057 61.7061 361.004L119.237 302.702C120.276 301.649 120.856 300.225 120.848 298.743C120.841 297.261 120.246 295.843 119.196 294.8L119.095 294.701L115.628 291.266L114.977 290.613C113.927 289.571 112.507 288.99 111.029 288.998C109.551 289.005 108.137 289.601 107.097 290.654L49.5665 348.95C48.5268 350.004 47.9465 351.429 47.9531 352.911C47.9596 354.394 48.5524 355.813 49.6014 356.858ZM226.75 181.562C203.017 158.014 164.736 158.218 141.25 182.016C117.764 205.815 117.967 244.208 141.709 267.756C165.45 291.304 203.723 291.103 227.212 267.298C250.701 243.494 250.486 205.098 226.75 181.562ZM146.968 262.421C142.022 257.514 138.089 251.679 135.392 245.248C132.695 238.817 131.288 231.917 131.251 224.94C131.214 217.964 132.547 211.049 135.175 204.589C137.803 198.13 141.674 192.252 146.567 187.293C167.144 166.44 200.692 166.259 221.488 186.894C242.283 207.528 242.463 241.166 221.889 262.022C216.996 266.981 211.176 270.926 204.763 273.63C198.35 276.334 191.468 277.745 184.511 277.782C177.554 277.819 170.657 276.482 164.216 273.846C157.774 271.21 151.913 267.328 146.968 262.421Z" fill="#2A1A6B"/>
<path opacity="0.45" d="M221.686 262.222C242.375 241.476 242.375 207.839 221.686 187.093C200.997 166.347 167.453 166.347 146.764 187.093C126.075 207.839 126.075 241.476 146.764 262.222C167.453 282.968 200.997 282.968 221.686 262.222Z" fill="white"/>
<path opacity="0.26" d="M50.0576 357.298L53.7274 360.943L119.095 294.701L115.628 291.266L50.0576 357.298Z" fill="white"/>
<path d="M71.3556 321.21C71.3556 321.21 83.0332 321.644 85.6686 324.84C88.3039 328.036 90.6313 332.124 90.2042 332.876C89.7771 333.627 88.8008 332.922 88.8008 332.922C88.8008 332.922 90.457 335.09 89.4313 336.104C88.6323 336.894 86.5257 335.23 86.5257 335.23C86.5257 335.23 87.7955 336.223 86.7088 336.856C85.2734 337.692 80.1886 332.194 79.1223 331.32C78.0559 330.446 69.8098 328.572 68.2263 327.203C66.6427 325.833 71.3556 321.21 71.3556 321.21Z" fill="#FEDCDB"/>
<path d="M41.3931 314.829C52.0595 320.335 66.9884 327.147 66.9884 327.147C68.6153 326.029 69.9755 324.563 70.972 322.856C72.5904 320.041 72.7154 317.836 72.7154 317.836C72.7154 317.836 56.261 301.831 46.2745 296.971C46.2087 298.938 45.9281 300.892 45.4377 302.798C44.5631 306.493 43.0638 310.726 41.3931 314.829ZM46.7946 281.931C47.4948 275.873 45.1616 266.32 43.889 261.719L41.7563 262.45C41.7563 262.45 44.6967 278.662 45.8532 290.421C46.2803 287.338 46.4749 284.687 46.7946 281.931Z" fill="#6EC6F0"/>
<path d="M31.5053 311.067C28.9281 306.869 29.5034 294.873 29.3348 281.905C29.0995 263.916 43.7379 261.768 43.7379 261.768C43.7379 261.768 48.3694 276.415 47.4164 284.629C46.9108 288.999 46.7161 293.078 45.426 299.013C55.1627 302.845 73.3488 320.534 73.3488 320.534C73.3488 320.534 73.2122 322.739 71.6054 325.554C70.6093 327.263 69.2466 328.729 67.616 329.846C67.616 329.846 40.0739 317.276 33.086 312.483C32.5364 312.261 32.0645 311.881 31.729 311.391C31.6385 311.296 31.5648 311.187 31.5111 311.067H31.5053Z" fill="#75D2FE"/>
<!-- <path d="M74.7638 328.185C76.1423 328.273 77.4742 328.719 78.629 329.479C79.7837 330.239 80.7217 331.287 81.3508 332.52C82.1876 334.164 82.6787 335.259 82.7775 335.545C83.068 336.398 82.5044 337.202 81.7663 336.853C81.0283 336.503 78.5498 332.849 77.5009 331.483C76.452 330.117 72.0762 328.013 72.0762 328.013L74.7638 328.185ZM382.167 491.64L383.591 502.712L385.761 519.558L386.534 525.563L386.598 526.067L392.119 568.848L392.319 570.43L401.08 571.304L401.251 568.598L404.157 522.824L404.209 522.014L404.604 515.736L406.179 490.868C406.381 487.734 405.359 484.644 403.33 482.251C401.301 479.859 398.423 478.351 395.306 478.048C394.565 477.978 393.819 477.978 393.078 478.048C391.458 478.189 389.885 478.658 388.451 479.425C387.017 480.192 385.752 481.242 384.733 482.512C383.714 483.781 382.961 485.244 382.52 486.813C382.079 488.382 381.959 490.023 382.167 491.64Z" fill="#FEDCDB"/> -->
<!-- <path d="M355.502 490.859L357.577 523.629L360.424 568.589L360.596 571.296L369.356 570.422L369.557 568.837L375.15 525.406L379.508 491.637C379.717 490.022 379.597 488.381 379.158 486.813C378.718 485.246 377.967 483.783 376.95 482.514C375.932 481.244 374.67 480.194 373.237 479.426C371.805 478.658 370.233 478.188 368.615 478.045C368.249 478.013 367.889 477.995 367.529 477.995C365.881 477.996 364.251 478.336 362.739 478.993C361.227 479.65 359.866 480.612 358.739 481.817C357.612 483.022 356.743 484.447 356.187 486.002C355.63 487.557 355.397 489.21 355.502 490.859Z" fill="#FEDCDB"/> -->
<!-- <path d="M382.167 491.64L383.591 502.712L385.761 519.558L386.534 525.563C393.017 524.981 399.665 523.331 404.194 522.012L404.589 515.733L406.164 490.865C406.366 487.731 405.344 484.641 403.315 482.248C401.286 479.856 398.409 478.348 395.292 478.045C394.55 477.975 393.804 477.975 393.063 478.045C391.445 478.188 389.872 478.658 388.44 479.426C387.007 480.194 385.744 481.245 384.727 482.515C383.709 483.784 382.958 485.247 382.518 486.815C382.078 488.383 381.959 490.024 382.167 491.64ZM355.502 490.859L357.577 523.629H357.615C358.658 523.757 359.835 523.9 361.101 524.048C365.1 524.511 370.109 525.03 375.138 525.406L379.497 491.637C379.705 490.022 379.586 488.381 379.146 486.813C378.706 485.246 377.955 483.783 376.938 482.514C375.921 481.244 374.658 480.194 373.226 479.426C371.794 478.658 370.221 478.188 368.604 478.045C368.238 478.013 367.877 477.995 367.517 477.995C365.87 477.998 364.241 478.339 362.731 478.997C361.221 479.655 359.861 480.616 358.735 481.821C357.609 483.026 356.742 484.45 356.186 486.005C355.63 487.559 355.397 489.211 355.502 490.859Z" fill="#FECAC9"/> -->
</g>
<defs>
<linearGradient id="paint0_linear_375_65" x1="179.696" y1="168.809" x2="230.718" y2="219.08" gradientUnits="userSpaceOnUse">
<stop stop-color="#FE61CA"/>
<stop offset="1" stop-color="#FE6161"/>
</linearGradient>
<linearGradient id="paint1_linear_375_65" x1="170.634" y1="175.825" x2="225.839" y2="230.216" gradientUnits="userSpaceOnUse">
<stop stop-color="#FE61CA"/>
<stop offset="1" stop-color="#FE6161"/>
</linearGradient>
<clipPath id="clip0_375_65">
<rect width="509" height="530" fill="white"/>
</clipPath>
</defs>
</svg>
