<svg width="36" height="35" viewBox="0 0 36 35" fill="none" xmlns="http://www.w3.org/2000/svg">
<g clip-path="url(#clip0_87_138)">
<path d="M31.4999 9.77743C30.5169 10.1923 29.4743 10.4646 28.4067 10.5853C29.5187 9.95033 30.3726 8.94484 30.7746 7.7468C29.7175 8.34444 28.5609 8.76551 27.3548 8.99182C26.3724 7.99473 24.9729 7.37158 23.4238 7.37158C20.4496 7.37158 18.0381 9.6688 18.0381 12.5021C18.0381 12.9043 18.0858 13.2958 18.1776 13.6714C13.7018 13.4574 9.7335 11.4149 7.07723 8.31075C6.61375 9.06851 6.34817 9.94994 6.34817 10.8901C6.34817 12.6701 7.29902 14.2405 8.744 15.1606C7.88877 15.1351 7.05236 14.915 6.30459 14.5188C6.30429 14.5403 6.30429 14.5618 6.30429 14.5834C6.30429 17.0692 8.16065 19.1429 10.6243 19.6142C9.83121 19.8197 8.99935 19.8498 8.19224 19.7022C8.8775 21.7405 10.8665 23.2238 13.223 23.2653C11.3799 24.6413 9.05767 25.4616 6.53459 25.4616C6.09982 25.4616 5.67121 25.4373 5.24988 25.3899C7.63319 26.8457 10.464 27.695 13.5053 27.695C23.4113 27.695 28.8281 19.877 28.8281 13.0971C28.8281 12.8746 28.823 12.6533 28.8125 12.4334C29.8669 11.7072 30.7769 10.8078 31.4999 9.77743Z" fill="#23232D"/>
</g>
<defs>
<clipPath id="clip0_87_138">
<rect width="26.25" height="20.4167" fill="white" transform="translate(5.24988 7.2915)"/>
</clipPath>
</defs>
</svg>
